<?xml version="1.0" encoding="UTF-8"?><svg id="Calque_2" xmlns="http://www.w3.org/2000/svg" width="36" height="36" xmlns:xlink="http://www.w3.org/1999/xlink" viewBox="0 0 36 36"><defs><clipPath id="clippath"><rect width="36" height="36" style="fill:none;"/></clipPath><clipPath id="clippath-1"><rect x="7.35" y="5.27" width="22.35" height="24.78" style="fill:none;"/></clipPath></defs><g id="Calque_1-2"><g id="personalization_x5F__x5F_categories_x5F__x5F_room"><g style="clip-path:url(#clippath);"><rect x="8.7" y="9.85" width="17.3" height="18.02" transform="translate(-2.84 3.08) rotate(-9.38)" style="fill:none;"/><g id="Groupe_1632"><g style="clip-path:url(#clippath-1);"><g id="Groupe_1631"><path id="Tracé_1532" d="M15.62,26.09h0c.62.96,1.81,1.38,2.89,1.03-.98.61-1.42,1.82-1.05,2.92,0,0,0,0,0,0-.75-.76-1.81-1.15-2.88-1.06,0,0,1.4-1.42,1.03-2.89" style="fill:#fff;"/><path id="Tracé_1533" d="M22.09,5.27h0c.69.91,1.9,1.25,2.96.82-.93.68-1.28,1.92-.83,2.99,0,0,0,0,0,0-.81-.7-1.89-1.01-2.95-.84,0,0,1.29-1.52.82-2.96" style="fill:#fff;"/><path id="Tracé_1556" d="M8.56,10.92h0c.41.54,1.13.74,1.75.48-.55.4-.75,1.13-.49,1.76,0,0,0,0,0,0-.48-.42-1.12-.6-1.74-.5.42-.48.59-1.13.48-1.75" style="fill:#fff;"/><path id="Tracé_1557" d="M26.09,20.42h0c.41.54,1.13.74,1.75.48-.55.4-.75,1.13-.49,1.76,0,0,0,0,0,0-.48-.42-1.12-.6-1.74-.5.42-.48.59-1.13.48-1.75" style="fill:#fff;"/><path id="Tracé_1534" d="M13.8,18.9c-.51-1.14,0-2.48,1.15-2.99.56-.25,1.19-.26,1.76-.03.35-1.2,1.6-1.89,2.8-1.55.59.17,1.09.58,1.38,1.12.64,1.08,1.02,2.69-1.07,6.46-.05.1-.16.15-.27.13-1.34-.16-2.65-.54-3.87-1.13-.86-.4-1.53-1.12-1.88-2.01" style="fill:#fff;"/><path id="Tracé_1535" d="M18.93,6.1h0c.34.53,1,.77,1.6.57-.54.34-.79,1.01-.58,1.61,0,0,0,0,0,0-.42-.42-1-.63-1.59-.58.42-.42.63-1.01.57-1.6" style="fill:#fff;"/><path id="Tracé_1536" d="M19.66,27.27h0c.34.53,1,.77,1.6.57-.54.34-.79,1.01-.58,1.61,0,0,0,0,0,0-.42-.42-1-.63-1.59-.58.42-.42.63-1.01.57-1.6" style="fill:#fff;"/></g></g></g><path d="M24.27,11.86c-1.61-2.46-4.23-3.19-6.68-1.86-1.24.66-2.14,1.83-2.47,3.2-1.33-.47-2.79-.36-4.03.33-2.45,1.32-3.27,3.92-2.09,6.61h0c.84,1.92,2.38,3.44,4.32,4.24,1.91.91,4.63,1.66,8.62,2.11.24.03.47-.1.58-.32,4.24-8.48,3.26-11.99,1.74-14.3ZM20.95,24.24c-7.37-.84-8.95-3.02-9.66-4.65-.84-1.91-.25-3.64,1.42-4.55,1.02-.56,2.25-.56,3.27.01.07-1.16.74-2.2,1.77-2.74.36-.2.76-.34,1.17-.41.15-.02.31-.03.47-.03,1.23,0,2.36.66,2.95,1.74.98,1.49,1.95,4-1.37,10.63Z" style="fill:#fff;"/></g></g></g></svg>