<?xml version="1.0" encoding="UTF-8"?>
<svg id="uuid-a5225ff6-34e5-4612-a113-db3844f4be60" data-name="Calque 2" xmlns="http://www.w3.org/2000/svg" width="36" height="36" xmlns:xlink="http://www.w3.org/1999/xlink" viewBox="0 0 36 36">
  <defs>
    <clipPath id="uuid-af968e72-197b-4f5d-a1b3-23e3eea36fbc">
      <rect width="36" height="36" fill="none" stroke-width="0"/>
    </clipPath>
  </defs>
  <g id="uuid-5e04de68-d6d3-43fe-877e-e9b6b98434fb" data-name="Calque 1">
    <g id="uuid-318065dd-04f3-468f-9e46-60259dcdcecd" data-name="icon__pet">
      <g clip-path="url(#uuid-af968e72-197b-4f5d-a1b3-23e3eea36fbc)">
        <path id="uuid-d7e800c9-079e-4374-a84e-64e5aae7d496" data-name="Taki" d="m25.64,25.4s-.09-.08-.14-.11c-.21-.12-.42-.24-.63-.35-.11-.06-.22-.13-.35-.2.09-.02.16-.05.22-.1.15-.11.18-.25.06-.39-.04-.05-.09-.09-.14-.14-.06-.06-.15-.08-.18-.16-.04-.11-.12-.18-.22-.23-.04-.02-.08-.03-.11-.05-.06-.06-.12-.08-.2-.09-.03,0-.07,0-.08-.06-.04-.18-.13-.33-.24-.48-.16-.21-.33-.41-.42-.65-.1-.26-.25-.5-.39-.75-.26-.47-.58-.9-.95-1.29-.24-.26-.51-.49-.81-.69-.38-.26-.78-.47-1.19-.66-.26-.11-.52-.21-.79-.29-.17-.05-.34-.08-.5-.17-.08-.04-.17-.07-.26-.1-.22-.07-.44-.11-.66-.15-.05,0-.09-.03-.12-.07-.06-.08-.13-.16-.19-.24-.13-.18-.26-.37-.39-.55-.17-.24-.35-.48-.51-.73-.22-.34-.41-.69-.58-1.06-.11-.25-.23-.49-.33-.74-.18-.42-.34-.85-.52-1.27-.12-.28-.15-.55-.07-.85.09-.3.12-.61.17-.91.03-.18.03-.37.08-.55.01-.04.02-.07.01-.11-.02-.12.04-.18.14-.23.11-.06.22-.13.31-.22.04-.04.07-.04.12-.03.21.07.42.12.64.13.43,0,.87,0,1.3,0,.18,0,.35-.03.52-.1.16-.07.2-.21.1-.34-.06-.09-.14-.16-.22-.24-.08-.08-.16-.17-.25-.25-.11-.1-.21-.21-.25-.36-.05-.17-.11-.35-.17-.52-.18-.46-.45-.87-.84-1.18-.16-.13-.33-.24-.54-.29-.02,0-.04-.02-.05-.03-.05-.07-.12-.11-.19-.16-.21-.16-.46-.23-.7-.31-.22-.07-.45-.08-.67-.11-.21-.03-.39-.1-.47-.32-.06-.17-.09-.33-.02-.5.05-.12.1-.23.15-.35.05-.12.1-.23.09-.37,0-.09-.08-.16-.17-.17-.17,0-.28.08-.39.21-.29.34-.27.83-.02,1.14.1.13.21.25.34.35-.05,0-.09.01-.13.02-.32.05-.58.2-.79.44-.21.25-.37.52-.49.83-.19.5-.29,1.03-.31,1.56-.02.36,0,.72,0,1.08,0,.07,0,.14.02.21.03.24.06.48.09.72.04.3.08.6.15.89.07.3.13.6.2.9.15.61.32,1.22.53,1.81.15.42.33.83.5,1.24.11.28.24.55.37.82.05.11.07.22.02.34-.02.05-.05.1-.08.15-.08.13-.16.26-.22.4-.12.29-.23.59-.44.84,0,0,0,0,0,0-.09.13-.17.26-.24.39,0,0,0,0,0,0-.1.11-.17.25-.24.38-.14.3-.27.61-.39.93-.19.49-.4.98-.46,1.51-.02.19-.03.38,0,.57.03.23.11.46.19.68.09.25.19.49.32.72.06.1.08.21.14.31.1.15.23.26.33.4.04.05.11.09.12.17.01.12.02.23.03.35.02.34.15.62.42.84.03.03.06.06.08.1.03.07.07.12.13.16.05.03.09.08.12.14.07.14.14.26.21.4.2.38.46.71.78.99.05.04.1.08.14.13.08.11.11.23.11.35,0,.06,0,.12,0,.18.05.21.18.37.37.48.2.12.41.24.56.43.14.18.3.35.31.6,0,.08,0,.15-.05.21-.05.07-.09.14-.12.22-.03.1-.18.2-.29.19-.03,0-.06-.01-.09.01-.03.03-.07.03-.11.03-.05,0-.11,0-.15.02-.1.06-.21.08-.32.1-.15.02-.3.05-.46.06-.14,0-.27.03-.41.04-.11,0-.22.05-.32,0-.02-.01-.05,0-.07,0-.04.03-.09.05-.13.08-.04.03-.08.06-.08.11,0,.05.06.04.1.07-.01,0-.02.01-.03.02-.03.03-.09.03-.08.09,0,.06.07.07.11.08.02,0,.04,0,.06,0,.04,0,.07,0,.11,0,.05.01.09,0,.12-.03.03-.04.07-.05.12-.06.18-.03.36-.04.54-.03.09,0,.18.01.27.03.07.02.14.04.21.11-.12-.01-.21.03-.27.12-.02.03-.05.07-.03.11.02.04.06.03.1.02.07-.01.14-.03.22-.02.02,0,.05,0,.06-.03.02-.03.05-.04.08-.06.16-.08.32-.14.49-.2.18-.07.36-.15.55-.2.11-.03.22-.07.32-.14.03-.02.05-.01.08,0,.06.03.12.05.18.04.16-.02.32-.04.47-.06.12-.02.24-.07.38-.05.09.01.18-.02.27-.05.04-.01.05-.05.02-.09-.05-.06-.12-.08-.19-.1-.04-.02-.07.02-.1.03-.03.02-.06.03-.1.03-.11.02-.22.03-.34.05-.04,0-.07.01-.11-.01-.19-.15-.37-.3-.55-.46-.05-.05-.08-.1-.1-.17-.05-.18-.13-.35-.17-.54-.04-.17-.11-.34-.15-.51-.01-.06-.05-.13,0-.19.07-.08.1-.18.13-.28.03-.11.04-.22.02-.34-.01-.09,0-.19-.01-.28-.01-.07.03-.09.06-.12.04-.03.06,0,.09.01.02.01.04.03.06.04.15.1.33.15.5.18.16.03.32.03.48.04.26.02.53.05.79.02.01,0,.02,0,.03,0,.05.02.11.04.16.05.03,0,.04.02.04.04,0,.07,0,.13.01.2.02.12.03.24.1.35.09.13.25.21.3.38.07.02.06.08.07.14.06.19.07.38.05.57,0,.07-.02.13-.06.19-.16.26-.31.53-.49.79-.03.04-.06.08-.11.09-.06.01-.1.04-.14.07-.3.23-.64.34-.99.44-.01,0-.03,0-.04,0-.09,0-.18-.01-.25.08-.04.05-.07.1-.09.15,0,.02,0,.04.02.05.11,0,.22.01.32-.01.23-.06.46-.13.71-.11.19.01.36.05.54.12.12.05.14.08.12.21,0,.05,0,.11.01.16,0,.03.03.04.05.02.1-.07.18-.17.21-.27.03-.08.07-.1.13-.13.23-.08.47-.11.71-.12.17-.01.35,0,.52.03.11.02.24,0,.33.1,0,0,.02,0,.03,0,.05-.04.09,0,.13,0,.05.01.1.03.15.04.04,0,.07,0,.05-.06-.02-.05-.04-.1-.08-.13-.08-.06-.15-.15-.27-.1-.03.01-.05,0-.08,0-.13-.05-.26-.09-.4-.12-.19-.03-.36-.09-.44-.28,0-.02-.02-.03-.04-.03-.04,0-.05-.03-.05-.06-.04-.18-.09-.36-.13-.54-.03-.13-.05-.26-.03-.4.05-.25.08-.5.18-.74.01-.04.03-.06.06-.08.05-.02.1-.06.09-.12-.01-.14.05-.25.12-.35.11-.17.18-.35.15-.56,0-.02,0-.04.02-.05.06-.02.12-.05.17-.08.23-.11.42-.27.55-.5.01-.02.03-.05.05-.06.07-.03.13-.07.2-.1.3-.12.57-.3.82-.5.13-.1.25-.19.42-.22.11-.02.23-.04.34-.06.32-.05.63-.14.93-.28.16-.07.31-.17.48-.23.33-.12.65-.27.93-.48.15-.11.29-.23.41-.37.08-.1.08-.21-.01-.31Z" fill="#fff" stroke-width="0"/>
      </g>
    </g>
  </g>
</svg>