<?xml version="1.0" encoding="UTF-8"?>
<svg id="uuid-3ed490b0-6ad5-4397-858a-7ad65a371146" data-name="Calque 2" xmlns="http://www.w3.org/2000/svg" width="36" height="36" xmlns:xlink="http://www.w3.org/1999/xlink" viewBox="0 0 36 36">
  <defs>
    <clipPath id="uuid-f1398b32-6207-4ec0-9821-400098820a28">
      <rect width="36" height="36" fill="none" stroke-width="0"/>
    </clipPath>
  </defs>
  <g id="uuid-346dcfa0-9a7c-4845-9196-1d489e8c9327" data-name="Calque 1">
    <g id="uuid-718e9e25-c802-42a2-b6f5-437f4439d2c6" data-name="icon__room">
      <g clip-path="url(#uuid-f1398b32-6207-4ec0-9821-400098820a28)">
        <path d="m28.91,11.91l-16.43-1.07c-.05,0-.1,0-.15.02l-4.52,1.88c-.12.05-.21.17-.21.31v11.52s0,.02,0,.02c0,.02,0,.04.01.05,0,.02.01.05.02.07,0,0,0,.02,0,.02,0,.01.02.02.02.03,0,0,.01.02.02.03.02.03.05.05.08.06,0,0,0,0,.01,0,.03.01.06.02.09.03,0,0,0,0,.02,0l17.9,2.24s.03,0,.04,0c.09,0,.18-.04.24-.11l3.05-3.29c.06-.06.09-.14.09-.23v-11.27c0-.18-.14-.32-.31-.33Zm-3.33,5.36v-2.91l1.93.14v2.93l-1.93-.17Zm1.93.75v2.52l-1.93-.19h0v-2.49l1.93.17Zm-4.45-.97v-2.88l1.94.14v2.9l-1.94-.17Zm1.94.75v2.48l-1.94-.19v-2.46l1.94.17Zm-12.73-6.19l.16,9.85-4.15,2.52v-10.71l3.99-1.66Zm13.44,14.84l-16.78-2.1,3.87-2.35s.04-.04.06-.06l15.44,1.71-2.6,2.8Z" fill="#fff" stroke-width="0"/>
      </g>
    </g>
  </g>
</svg>