<?xml version="1.0" encoding="UTF-8"?>
<svg id="uuid-e58f0ddf-90ce-4425-a248-adbd1adb1ef2" data-name="Calque 2" xmlns="http://www.w3.org/2000/svg" width="43.4" height="43.41" viewBox="0 0 43.4 43.41">
  <g id="uuid-b440612c-1f43-4449-9aa5-ed64749297bd" data-name="Calque 1">
    <g id="uuid-c63571a4-b59e-48ef-b673-aab727e5f048" data-name="icon__zoom-more-sweet">
      <g id="uuid-1acddb90-8377-4bde-b8f2-1cd071b3d6d4" data-name="Background">
        <path id="uuid-65222519-c646-46a3-b932-4226265c7950" data-name="Tracé 1145" d="m43.4,21.71c0,11.98-9.72,21.7-21.7,21.7-4.45,0-8.8-1.37-12.45-3.93-9.25-4.03-.69-3.05-4.4-6.78C1.14,28.97,0,26.21,0,21.71,0,9.73,9.72.01,21.7.01c4.36-.07,8.73.16,13.06.67,8.38.76-1.31,5.42,5.45,9.69,3.19,3.26,3.19,7.18,3.19,11.34" fill="#fff" stroke-width="0"/>
      </g>
      <path d="m32.66,30.57l-4.33-4.01c1.34-1.72,2.15-3.87,2.15-6.22,0-5.58-4.54-10.11-10.11-10.11s-10.11,4.54-10.11,10.11,4.54,10.11,10.11,10.11c2.15,0,4.14-.68,5.78-1.83l4.47,4.14c.29.27.65.4,1.02.4.4,0,.81-.16,1.1-.48.56-.61.53-1.56-.08-2.12Zm-19.4-10.22c0-3.92,3.19-7.11,7.11-7.11s7.11,3.19,7.11,7.11-3.19,7.11-7.11,7.11-7.11-3.19-7.11-7.11Z" fill="#c73a5f" stroke-width="0"/>
      <path d="m23.22,19.35h-1.85v-1.84c0-.55-.45-1-1-1s-1,.45-1,1v1.84h-1.84c-.55,0-1,.45-1,1s.45,1,1,1h1.84v1.85c0,.55.45,1,1,1s1-.45,1-1v-1.85h1.85c.55,0,1-.45,1-1s-.45-1-1-1Z" fill="#c73a5f" stroke-width="0"/>
    </g>
  </g>
</svg>