<?xml version="1.0" encoding="UTF-8"?>
<svg id="uuid-0670b242-ee95-4376-8146-998ee1d91e66" data-name="Calque 2" xmlns="http://www.w3.org/2000/svg" width="43.4" height="43.41" viewBox="0 0 43.4 43.41">
  <g id="uuid-7488c3a4-8fbd-4692-80bc-aff171c8a237" data-name="Calque 1">
    <g id="uuid-afab4d56-2ef8-46c1-b3da-cddf02dfd8d3" data-name="icon__zoom-less-sweet">
      <g id="uuid-e40d62d6-d967-4776-8dbc-e4f6f12a4290" data-name="Background">
        <path id="uuid-e499b948-9735-4f67-a767-a3291a70d232" data-name="Tracé 1145" d="m43.4,21.71c0,11.98-9.72,21.7-21.7,21.7-4.45,0-8.8-1.37-12.45-3.93-9.25-4.03-.69-3.05-4.4-6.78C1.14,28.97,0,26.21,0,21.71,0,9.73,9.72.01,21.7.01c4.36-.07,8.73.16,13.06.67,8.38.76-1.31,5.42,5.45,9.69,3.19,3.26,3.19,7.18,3.19,11.34" fill="#fff" stroke-width="0"/>
      </g>
      <g>
        <path d="m32.66,30.57l-4.33-4.01c1.34-1.72,2.15-3.87,2.15-6.22,0-5.58-4.54-10.11-10.11-10.11s-10.11,4.54-10.11,10.11,4.54,10.11,10.11,10.11c2.15,0,4.14-.68,5.78-1.83l4.47,4.14c.29.27.65.4,1.02.4.4,0,.81-.16,1.1-.48.56-.61.53-1.56-.08-2.12Zm-19.4-10.22c0-3.92,3.19-7.11,7.11-7.11s7.11,3.19,7.11,7.11-3.19,7.11-7.11,7.11-7.11-3.19-7.11-7.11Z" fill="#c73a5f" stroke-width="0"/>
        <path d="m23.22,19.35h-5.69c-.55,0-1,.45-1,1s.45,1,1,1h5.69c.55,0,1-.45,1-1s-.45-1-1-1Z" fill="#c73a5f" stroke-width="0"/>
      </g>
    </g>
  </g>
</svg>