<svg xmlns="http://www.w3.org/2000/svg" xmlns:xlink="http://www.w3.org/1999/xlink" width="42" height="42" viewBox="0 0 42 42">
  <defs>
    <clipPath id="clip-path">
      <path id="Tracé_5832" data-name="Tracé 5832" d="M21,0A21,21,0,1,1,0,21,21,21,0,0,1,21,0Z" transform="translate(54.387 -64.084)" fill="#c73a5f" stroke="#e3e3e3" stroke-width="2"/>
    </clipPath>
  </defs>
  <g id="Icobanquefiltre" transform="translate(-54.387 64.084)">
    <g id="Groupe_de_masques_2991" data-name="Groupe de masques 2991" clip-path="url(#clip-path)">
      <g id="Groupe_3006" data-name="Groupe 3006" transform="translate(-469.023 -731.03)">
        <g id="Groupe_1798" data-name="Groupe 1798" transform="translate(177.324 -64.353)">
          <path id="Tracé_1644" data-name="Tracé 1644" d="M-4719.322-10477.033l3.964-5.467h13.022l3.96,5.467-10.338,10.885Z" transform="translate(5076.255 11228.001)" fill="none" stroke="#fff" stroke-linecap="round" stroke-linejoin="round" stroke-width="2"/>
          <path id="Tracé_1645" data-name="Tracé 1645" d="M-4710.177-10482.929l3.208,5.759,3.237-5.407,3.568,5.407,3.06-5.759" transform="translate(5071.03 11228.43)" fill="none" stroke="#fff" stroke-linecap="round" stroke-linejoin="round" stroke-width="2"/>
          <path id="Tracé_1646" data-name="Tracé 1646" d="M-4699.467-10459.744l-3.484-10.475h6.983Z" transform="translate(5066.966 11221.282)" fill="none" stroke="#fff" stroke-linecap="round" stroke-linejoin="round" stroke-width="2"/>
          <path id="Tracé_1647" data-name="Tracé 1647" d="M-4718.067-10470.031l6.6-.187h7.1l6.761.188" transform="translate(5075.464 11221.282)" fill="none" stroke="#fff" stroke-linecap="round" stroke-linejoin="round" stroke-width="2"/>
        </g>
      </g>
    </g>
  </g>
</svg>
