<?xml version="1.0" encoding="UTF-8"?>
<svg id="uuid-63cfa2a6-cdd1-4d9e-9c5e-2f41ffb8b714" data-name="Calque 2" xmlns="http://www.w3.org/2000/svg" width="42" height="42" xmlns:xlink="http://www.w3.org/1999/xlink" viewBox="0 0 42 42">
  <defs>
    <clipPath id="uuid-03532433-4790-4d64-9934-5a51fec4913f">
      <circle cx="21" cy="21" r="21" fill="none" stroke-width="0"/>
    </clipPath>
  </defs>
  <g id="uuid-56ecb97d-b19f-4708-ae26-244c83bbee86" data-name="Calque 1">
    <g id="uuid-1c391389-0717-482f-a5f0-71173a45faf9" data-name="calendar">
      <g clip-path="url(#uuid-03532433-4790-4d64-9934-5a51fec4913f)">
        <g id="uuid-67cef8d3-8057-40b2-8608-cc85265a0cc9" data-name="Groupe 599">
          <path id="uuid-25ee8105-fc00-4264-bae7-f52d0217ac01" data-name="Tracé 619" d="m26.45,21.78h.01c.7,0,1.27.57,1.27,1.27s-.57,1.27-1.27,1.27h-.01c-.7,0-1.27-.57-1.27-1.27,0-.7.57-1.27,1.27-1.27" fill="#fff" stroke-width="0"/>
          <path id="uuid-63073183-d44d-4dea-a9b2-30fb0f83cfe0" data-name="Tracé 620" d="m21,21.78h.01c.7,0,1.27.57,1.27,1.27,0,.7-.57,1.27-1.27,1.27h-.01c-.7,0-1.27-.57-1.27-1.27,0-.7.57-1.27,1.27-1.27h0" fill="#fff" stroke-width="0"/>
          <path id="uuid-9814dbb1-bba2-415f-9600-5226ad53c3e0" data-name="Tracé 621" d="m15.55,21.78h.01c.7,0,1.27.57,1.27,1.27,0,.7-.57,1.27-1.27,1.27h-.01c-.7,0-1.27-.57-1.27-1.27,0-.7.57-1.27,1.27-1.27h0" fill="#fff" stroke-width="0"/>
          <path id="uuid-d4377977-1c77-46bc-8c44-d00e2b8546a4" data-name="Tracé 622" d="m26.45,26.54h.01c.7,0,1.27.57,1.27,1.27s-.57,1.27-1.27,1.27h-.01c-.7,0-1.27-.57-1.27-1.27,0-.7.57-1.27,1.27-1.27" fill="#fff" stroke-width="0"/>
          <path id="uuid-bac69ca6-44cf-4a33-bae3-67c715f2175e" data-name="Tracé 623" d="m21,26.54h.01c.7,0,1.27.57,1.27,1.27,0,.7-.57,1.27-1.27,1.27h-.01c-.7,0-1.27-.57-1.27-1.27,0-.7.57-1.27,1.27-1.27h0" fill="#fff" stroke-width="0"/>
          <path id="uuid-305f1c27-2a09-455e-a720-5916b834ada2" data-name="Tracé 624" d="m15.55,26.54h.01c.7,0,1.27.57,1.27,1.27,0,.7-.57,1.27-1.27,1.27h-.01c-.7,0-1.27-.57-1.27-1.27,0-.7.57-1.27,1.27-1.27h0" fill="#fff" stroke-width="0"/>
          <path d="m31.33,11.65c-1.15-1.01-2.59-1.61-4.11-1.75v-.72h0c0-.7-.57-1.27-1.27-1.27-.7,0-1.27.57-1.27,1.27v.67h-7.37v-.67h0c0-.7-.57-1.27-1.27-1.27-.7,0-1.27.57-1.27,1.27v.69c-3.53.32-6.23,3.35-6.09,6.94v11.1c-.01.23,0,.46,0,.68.2,3.73,3.39,6.59,7.12,6.38h10.37c1.89.09,3.74-.57,5.15-1.82,1.34-1.37,2.05-3.24,1.95-5.16v-11.22c.09-1.91-.62-3.76-1.96-5.12Zm-16.55.83v.74h0c0,.7.57,1.27,1.27,1.27.7,0,1.27-.57,1.27-1.27v-.83h7.37v.83h0c0,.7.57,1.27,1.27,1.27.7,0,1.27-.57,1.27-1.27v-.73c2.38.35,3.43,1.58,3.53,4.3v.21H11.22v-.18c.12-2.75,1.17-3.98,3.56-4.33Zm11.39,19.96h-10.37c-3.1-.14-4.46-1.34-4.58-4.53v-8.39h19.53v8.48c-.13,3.12-1.46,4.3-4.58,4.44Z" fill="#fff" stroke-width="0"/>
        </g>
      </g>
    </g>
  </g>
</svg>