<?xml version="1.0" encoding="UTF-8"?>
<svg id="uuid-752f527c-7729-45f6-b647-1817a827db48" data-name="Calque 2" xmlns="http://www.w3.org/2000/svg" width="42" height="42" xmlns:xlink="http://www.w3.org/1999/xlink" viewBox="0 0 42 42">
  <defs>
    <clipPath id="uuid-b74acefd-99a2-4df0-9d27-60d8df655527">
      <circle cx="21" cy="21" r="21" fill="none" stroke-width="0"/>
    </clipPath>
    <clipPath id="uuid-a69bd6c4-cfc3-4cf9-98de-84b28029098f">
      <circle cx="21" cy="21" r="21" fill="none" stroke-width="0"/>
    </clipPath>
  </defs>
  <g id="uuid-ef332577-c8b3-4f61-8f6e-e1fab2c5eee7" data-name="Calque 1">
    <g id="uuid-d994321d-a2b0-4d9d-b4ba-ab341a5f369e" data-name="personalization__icon__episodes">
      <g>
        <g clip-path="url(#uuid-b74acefd-99a2-4df0-9d27-60d8df655527)">
          <path d="m20.6,16l11.4-2.6c.5-.1.8-.6.7-1.2l-.8-5.1c0-.5-.5-.9-1-.8l-21.7,5c-.5.1-.8.6-.7,1.2l.8,5.1v11.9c0,1.1.4,2,1.2,2.8.7.7,1.7,1.1,2.7,1.1h16.1c2.2,0,3.9-1.8,3.9-4v-13.3h-12.6v-.1Zm2.1,2h3.1l-1.5,1.9h-3l1.4-1.9Zm-2.4,0l-1.4,1.9h-2.3l1.2-1.9h2.5Zm-4.8,0l-1.2,1.9h-3v-1.8l.7-.2h3.5v.1Zm14.5-9.6l.6,3.1-1.9.5-3.1-2.5,4.4-1.1Zm-6.9,1.6c0,.1.1.1,0,0l3.1,2.6-2.9.7-3.2-2.5,3-.8Zm-5.4,1.3s.1.1,0,0l3.2,2.5-3.3.8h0l-2.8-2.6,2.9-.7Zm-5.2,1.3l2.8,2.6-3.3.8h-.9l-.6-2.9,2-.5Zm18.7,16.7c0,1.1-.8,2-2,2h-15.9c-.5,0-1-.2-1.4-.5-.4-.4-.6-.8-.6-1.5v-7.4h19.6c.1,0,.2,0,.3-.1v7.5Zm0-9.3c-.1,0-.2-.1-.3-.1h-4l1.5-1.9h2.8v2Z" fill="#fff" stroke-width="0"/>
        </g>
        <g clip-path="url(#uuid-a69bd6c4-cfc3-4cf9-98de-84b28029098f)">
          <path d="m20,30.5c-.9,0-1.6-.7-1.6-1.6v-5c0-.3.1-.5.2-.7h0c.4-.8,1.4-1,2.2-.6l4.3,2.4c.2.1.5.4.6.6.2.4.3.8.2,1.2s-.4.8-.8,1l-4.3,2.4c-.2.2-.5.3-.8.3Zm.2-6.2v4.2l3.6-2.1-3.6-2.1Z" fill="#fff" stroke-width="0"/>
        </g>
      </g>
    </g>
  </g>
</svg>