<svg xmlns="http://www.w3.org/2000/svg" xmlns:xlink="http://www.w3.org/1999/xlink" width="42" height="42" viewBox="0 0 42 42">
  <defs>
    <clipPath id="clip-path">
      <path id="Tracé_5835" data-name="Tracé 5835" d="M21,0A21,21,0,1,1,0,21,21,21,0,0,1,21,0Z" transform="translate(663 131.621)" fill="#c73a5f" stroke="#e3e3e3" stroke-width="2"/>
    </clipPath>
  </defs>
  <g id="IcoEventfiltre" transform="translate(-663 -131.621)">
    <g id="Groupe_de_masques_2994" data-name="Groupe de masques 2994" clip-path="url(#clip-path)">
      <path id="Tracé_3085" data-name="Tracé 3085" d="M11.443,1.609l1.672,3.341v0a.223.223,0,0,0,.169.121h0l3.741.538h-.01A2.007,2.007,0,0,1,18.761,7.6a2.036,2.036,0,0,1-.017.264h0a2.007,2.007,0,0,1-.6,1.182h0l-2.705,2.6,0,0a.2.2,0,0,0-.062.145l0,.034h0l.641,3.67,0,.012a1.993,1.993,0,0,1,.026.322,2.023,2.023,0,0,1-1.7,2h0a2.049,2.049,0,0,1-.321.026,2.025,2.025,0,0,1-.946-.235l.006,0L9.743,15.884h0a.243.243,0,0,0-.111-.027.249.249,0,0,0-.113.027h0L6.178,17.617l.007,0a2.021,2.021,0,0,1-2.734-.839h0a2.018,2.018,0,0,1-.21-1.269l0-.012.641-3.67h0l0-.034a.2.2,0,0,0-.062-.144l0,0-2.708-2.6h0a2.007,2.007,0,0,1-.054-2.837h0a2.008,2.008,0,0,1,1.183-.6H2.233l3.741-.538h0a.226.226,0,0,0,.171-.122v0L7.822,1.608,7.827,1.6A2.032,2.032,0,0,1,10.568.728h0a2.032,2.032,0,0,1,.87.87l.005.011Z" transform="translate(678.146 141.222) rotate(17)" fill="none" stroke="#fff" stroke-width="2"/>
      <path id="Tracé_3089" data-name="Tracé 3089" d="M19.726,0h0a1.779,1.779,0,0,0,2.359.728A1.9,1.9,0,0,0,21.44,3.06s0,.006,0,0c-.651-.566-.784-1-2.372-.678A1.584,1.584,0,0,0,19.726,0" transform="matrix(0.848, 0.53, -0.53, 0.848, 675.176, 152.951)" fill="#fff"/>
      <path id="Tracé_3091" data-name="Tracé 3091" d="M20.627,0h0c2.653,3.5,5.59,1.725,5.59,1.725A4.5,4.5,0,0,0,24.688,7.25c0,.01-.011.014,0,0-1.542-1.341-1.858-2.369-5.62-1.607A3.754,3.754,0,0,0,20.627,0" transform="matrix(0.848, 0.53, -0.53, 0.848, 662.01, 126.126)" fill="#fff"/>
      <path id="Tracé_3092" data-name="Tracé 3092" d="M19.98,0h0c1.552,2.05,3.271,1.009,3.271,1.009a2.633,2.633,0,0,0-.895,3.233c0,.006-.007.008,0,0-.9-.784-1.087-1.386-3.288-.94A2.2,2.2,0,0,0,19.98,0" transform="matrix(0.848, 0.53, -0.53, 0.848, 678.894, 134.127)" fill="#fff"/>
      <path id="Tracé_3093" data-name="Tracé 3093" d="M1.331,0h0C3.6,2.991,6.1,1.472,6.1,1.472A3.842,3.842,0,0,0,4.8,6.19c0,.008-.01.012,0,0C3.481,5.045,3.212,4.167,0,4.818A3.2,3.2,0,0,0,1.331,0" transform="matrix(0.719, 0.695, -0.695, 0.719, 684.2, 149.146)" fill="#fff"/>
      <path id="Tracé_3094" data-name="Tracé 3094" d="M1.018,0h0C2.75,2.287,4.667,1.126,4.667,1.126a2.937,2.937,0,0,0-1,3.607c0,.006-.007.009,0,0C2.662,3.857,2.456,3.186,0,3.684A2.45,2.45,0,0,0,1.018,0" transform="matrix(0.956, 0.292, -0.292, 0.956, 669.871, 155.524)" fill="#fff"/>
    </g>
  </g>
</svg>
