<svg xmlns="http://www.w3.org/2000/svg" xmlns:xlink="http://www.w3.org/1999/xlink" viewBox="0 0 200 200" width="200" height="200" preserveAspectRatio="xMidYMid meet" style="width: 100%; height: 100%; transform: translate3d(0px, 0px, 0px); content-visibility: visible;"><defs><clipPath id="__lottie_element_53"><rect width="200" height="200" x="0" y="0"></rect></clipPath></defs><g clip-path="url(#__lottie_element_53)"><g transform="matrix(0.9999991655349731,0.0013089965796098113,-0.0013089965796098113,0.9999991655349731,0.13098907470703125,-0.1308135986328125)" opacity="1" style="display: block;"><g opacity="1" transform="matrix(1,0,0,1,100.44000244140625,101.81800079345703)"><path stroke-linecap="round" stroke-linejoin="miter" fill-opacity="0" stroke-miterlimit="10" stroke="rgb(255,255,255)" stroke-opacity="1" stroke-width="10" d=" M-46.23899841308594,-14.201000213623047 C-34.14099884033203,-14.201000213623047 47.72700119018555,-14.201000213623047 47.72700119018555,-14.201000213623047 C52.00699996948242,-14.201000213623047 55.474998474121094,-10.730999946594238 55.474998474121094,-6.451000213623047 C55.474998474121094,-6.451000213623047 55.474998474121094,6.451000213623047 55.474998474121094,6.451000213623047 C55.474998474121094,10.730999946594238 52.00699996948242,14.201000213623047 47.72700119018555,14.201000213623047 C47.72700119018555,14.201000213623047 -47.724998474121094,14.201000213623047 -47.724998474121094,14.201000213623047 C-52.005001068115234,14.201000213623047 -55.474998474121094,10.730999946594238 -55.474998474121094,6.451000213623047 C-55.474998474121094,6.451000213623047 -55.474998474121094,-6.451000213623047 -55.474998474121094,-6.451000213623047 C-55.474998474121094,-10.730999946594238 -52.005001068115234,-14.201000213623047 -47.724998474121094,-14.201000213623047 C-47.724998474121094,-14.201000213623047 -47.724998474121094,-14.201000213623047 -47.724998474121094,-14.201000213623047 C-47.724998474121094,-14.201000213623047 -47.20399856567383,-14.201000213623047 -46.23899841308594,-14.201000213623047"></path></g><g opacity="1" transform="matrix(1,0,0,1,100.44300079345703,154.8090057373047)"><path stroke-linecap="round" stroke-linejoin="round" fill-opacity="0" stroke="rgb(255,255,255)" stroke-opacity="1" stroke-width="13" d=" M-41.016998291015625,-33.08599853515625 C-28.673999786376953,-33.08599853515625 42.82099914550781,-33.08599853515625 42.82099914550781,-33.08599853515625 C47.72200012207031,-33.08599853515625 51.69499969482422,-29.113000869750977 51.69499969482422,-24.211999893188477 C51.69499969482422,-24.211999893188477 51.69499969482422,22.51099967956543 51.69499969482422,22.51099967956543 C51.69499969482422,28.35099983215332 46.96099853515625,33.084999084472656 41.12200164794922,33.084999084472656 C41.12200164794922,33.084999084472656 -41.12200164794922,33.084999084472656 -41.12200164794922,33.084999084472656 C-46.96099853515625,33.084999084472656 -51.69499969482422,28.35099983215332 -51.69499969482422,22.51099967956543 C-51.69499969482422,22.51099967956543 -51.69499969482422,-24.211999893188477 -51.69499969482422,-24.211999893188477 C-51.69499969482422,-29.113000869750977 -47.722999572753906,-33.08599853515625 -42.821998596191406,-33.08599853515625 C-42.821998596191406,-33.08599853515625 -42.821998596191406,-33.08599853515625 -42.821998596191406,-33.08599853515625 C-42.821998596191406,-33.08599853515625 -42.183998107910156,-33.08599853515625 -41.016998291015625,-33.08599853515625"></path></g><g opacity="1" transform="matrix(1,0,0,1,100.49700164794922,59.79999923706055)"><path stroke-linecap="round" stroke-linejoin="round" fill-opacity="0" stroke="rgb(255,255,255)" stroke-opacity="1" stroke-width="10" d=" M-0.5889999866485596,-20.535999298095703 C-26.875,-18.937000274658203 -0.21699999272823334,21.60099983215332 -0.21699999272823334,21.60099983215332 C-0.21699999272823334,21.60099983215332 27.268999099731445,-21.60099983215332 0,-20.565000534057617 C0,-20.565000534057617 0,-20.565000534057617 0,-20.565000534057617 C-0.19900000095367432,-20.55699920654297 -0.39500001072883606,-20.54800033569336 -0.5889999866485596,-20.535999298095703"></path></g><g opacity="1" transform="matrix(1,0,0,1,76.91799926757812,64.28500366210938)"><path stroke-linecap="round" stroke-linejoin="round" fill-opacity="0" stroke="rgb(255,255,255)" stroke-opacity="1" stroke-width="10" d=" M23.2450008392334,18.69300079345703 C20.62299919128418,14.37600040435791 0.23499999940395355,-18.143999099731445 -10.472999572753906,-3.6649999618530273 C-23.525999069213867,18.128999710083008 23.524999618530273,19.159000396728516 23.524999618530273,19.159000396728516 C23.524999618530273,19.159000396728516 23.524999618530273,19.159000396728516 23.524999618530273,19.159000396728516 C23.524999618530273,19.159000396728516 23.429000854492188,18.9950008392334 23.2450008392334,18.69300079345703"></path></g><g opacity="1" transform="matrix(1,0,0,1,123.96299743652344,64.28500366210938)"><path stroke-linecap="round" stroke-linejoin="round" fill-opacity="0" stroke="rgb(255,255,255)" stroke-opacity="1" stroke-width="10" d=" M-23.239999771118164,18.69300079345703 C-20.618999481201172,14.37600040435791 -0.23600000143051147,-18.145000457763672 10.465999603271484,-3.6649999618530273 C23.518999099731445,18.128999710083008 -23.520000457763672,19.159000396728516 -23.520000457763672,19.159000396728516 C-23.520000457763672,19.159000396728516 -23.520000457763672,19.159000396728516 -23.520000457763672,19.159000396728516 C-23.520000457763672,19.159000396728516 -23.423999786376953,18.9950008392334 -23.239999771118164,18.69300079345703"></path></g><g opacity="1" transform="matrix(1,0,0,1,0,0)"><path stroke-linecap="round" stroke-linejoin="miter" fill-opacity="0" stroke-miterlimit="10" stroke="rgb(255,255,255)" stroke-opacity="1" stroke-width="14" d=" M100,85.16699981689453 C100,85.16699981689453 100,185.16700744628906 100,185.16700744628906 M100,85.16699981689453 C100,85.16699981689453 100,85.16699981689453 100,85.16699981689453"></path></g></g><g transform="matrix(0.9999991655349731,0.0013089965796098113,-0.0013089965796098113,0.9999991655349731,0.13098907470703125,-0.1308135986328125)" opacity="1" style="display: block;"><g opacity="1" transform="matrix(1,0,0,1,100.44000244140625,101.81800079345703)"><path stroke-linecap="round" stroke-linejoin="miter" fill-opacity="0" stroke-miterlimit="10" stroke="rgb(199,58,95)" stroke-opacity="1" stroke-width="11" d=" M-46.23899841308594,-14.201000213623047 C-34.14099884033203,-14.201000213623047 47.72700119018555,-14.201000213623047 47.72700119018555,-14.201000213623047 C52.00699996948242,-14.201000213623047 55.474998474121094,-10.730999946594238 55.474998474121094,-6.451000213623047 C55.474998474121094,-6.451000213623047 55.474998474121094,6.451000213623047 55.474998474121094,6.451000213623047 C55.474998474121094,10.730999946594238 52.00699996948242,14.201000213623047 47.72700119018555,14.201000213623047 C47.72700119018555,14.201000213623047 -47.724998474121094,14.201000213623047 -47.724998474121094,14.201000213623047 C-52.005001068115234,14.201000213623047 -55.474998474121094,10.730999946594238 -55.474998474121094,6.451000213623047 C-55.474998474121094,6.451000213623047 -55.474998474121094,-6.451000213623047 -55.474998474121094,-6.451000213623047 C-55.474998474121094,-10.730999946594238 -52.005001068115234,-14.201000213623047 -47.724998474121094,-14.201000213623047 C-47.724998474121094,-14.201000213623047 -47.724998474121094,-14.201000213623047 -47.724998474121094,-14.201000213623047 C-47.724998474121094,-14.201000213623047 -47.20399856567383,-14.201000213623047 -46.23899841308594,-14.201000213623047"></path></g><g opacity="1" transform="matrix(1,0,0,1,100.44300079345703,154.8090057373047)"><path stroke-linecap="round" stroke-linejoin="round" fill-opacity="0" stroke="rgb(199,58,95)" stroke-opacity="1" stroke-width="13.5" d=" M-41.016998291015625,-33.08599853515625 C-28.673999786376953,-33.08599853515625 42.82099914550781,-33.08599853515625 42.82099914550781,-33.08599853515625 C47.72200012207031,-33.08599853515625 51.69499969482422,-29.113000869750977 51.69499969482422,-24.211999893188477 C51.69499969482422,-24.211999893188477 51.69499969482422,22.51099967956543 51.69499969482422,22.51099967956543 C51.69499969482422,28.35099983215332 46.96099853515625,33.084999084472656 41.12200164794922,33.084999084472656 C41.12200164794922,33.084999084472656 -41.12200164794922,33.084999084472656 -41.12200164794922,33.084999084472656 C-46.96099853515625,33.084999084472656 -51.69499969482422,28.35099983215332 -51.69499969482422,22.51099967956543 C-51.69499969482422,22.51099967956543 -51.69499969482422,-24.211999893188477 -51.69499969482422,-24.211999893188477 C-51.69499969482422,-29.113000869750977 -47.722999572753906,-33.08599853515625 -42.821998596191406,-33.08599853515625 C-42.821998596191406,-33.08599853515625 -42.821998596191406,-33.08599853515625 -42.821998596191406,-33.08599853515625 C-42.821998596191406,-33.08599853515625 -42.183998107910156,-33.08599853515625 -41.016998291015625,-33.08599853515625"></path></g><g opacity="1" transform="matrix(1,0,0,1,100.49700164794922,59.79999923706055)"><path stroke-linecap="round" stroke-linejoin="round" fill-opacity="0" stroke="rgb(199,58,95)" stroke-opacity="1" stroke-width="11" d=" M-0.5889999866485596,-20.535999298095703 C-26.875,-18.937000274658203 -0.21699999272823334,21.60099983215332 -0.21699999272823334,21.60099983215332 C-0.21699999272823334,21.60099983215332 27.268999099731445,-21.60099983215332 0,-20.565000534057617 C0,-20.565000534057617 0,-20.565000534057617 0,-20.565000534057617 C-0.19900000095367432,-20.55699920654297 -0.39500001072883606,-20.54800033569336 -0.5889999866485596,-20.535999298095703"></path></g><g opacity="1" transform="matrix(1,0,0,1,76.91799926757812,64.28500366210938)"><path stroke-linecap="round" stroke-linejoin="round" fill-opacity="0" stroke="rgb(199,58,95)" stroke-opacity="1" stroke-width="11" d=" M23.2450008392334,18.69300079345703 C20.62299919128418,14.37600040435791 0.23499999940395355,-18.143999099731445 -10.472999572753906,-3.6649999618530273 C-23.525999069213867,18.128999710083008 23.524999618530273,19.159000396728516 23.524999618530273,19.159000396728516 C23.524999618530273,19.159000396728516 23.524999618530273,19.159000396728516 23.524999618530273,19.159000396728516 C23.524999618530273,19.159000396728516 23.429000854492188,18.9950008392334 23.2450008392334,18.69300079345703"></path></g><g opacity="1" transform="matrix(1,0,0,1,123.96299743652344,64.28500366210938)"><path stroke-linecap="round" stroke-linejoin="round" fill-opacity="0" stroke="rgb(199,58,95)" stroke-opacity="1" stroke-width="11" d=" M-23.239999771118164,18.69300079345703 C-20.618999481201172,14.37600040435791 -0.23600000143051147,-18.145000457763672 10.465999603271484,-3.6649999618530273 C23.518999099731445,18.128999710083008 -23.520000457763672,19.159000396728516 -23.520000457763672,19.159000396728516 C-23.520000457763672,19.159000396728516 -23.520000457763672,19.159000396728516 -23.520000457763672,19.159000396728516 C-23.520000457763672,19.159000396728516 -23.423999786376953,18.9950008392334 -23.239999771118164,18.69300079345703"></path></g><g opacity="1" transform="matrix(1,0,0,1,0,0)"><path stroke-linecap="round" stroke-linejoin="miter" fill-opacity="0" stroke-miterlimit="10" stroke="rgb(199,58,95)" stroke-opacity="1" stroke-width="14.1" d=" M100,85.16699981689453 C100,85.16699981689453 100,185.16700744628906 100,185.16700744628906 M100,85.16699981689453 C100,85.16699981689453 100,85.16699981689453 100,85.16699981689453"></path></g></g><g transform="matrix(0.9999991655349731,0.0013089965796098113,-0.0013089965796098113,0.9999991655349731,0.13098907470703125,-0.1308135986328125)" opacity="1" style="display: block;"><g opacity="1" transform="matrix(1,0,0,1,100.44000244140625,101.81800079345703)"><path stroke-linecap="round" stroke-linejoin="miter" fill-opacity="0" stroke-miterlimit="10" stroke="rgb(255,255,255)" stroke-opacity="1" stroke-width="11" d=" M-46.23899841308594,-14.201000213623047 C-34.14099884033203,-14.201000213623047 47.72700119018555,-14.201000213623047 47.72700119018555,-14.201000213623047 C52.00699996948242,-14.201000213623047 55.474998474121094,-10.730999946594238 55.474998474121094,-6.451000213623047 C55.474998474121094,-6.451000213623047 55.474998474121094,6.451000213623047 55.474998474121094,6.451000213623047 C55.474998474121094,10.730999946594238 52.00699996948242,14.201000213623047 47.72700119018555,14.201000213623047 C47.72700119018555,14.201000213623047 -47.724998474121094,14.201000213623047 -47.724998474121094,14.201000213623047 C-52.005001068115234,14.201000213623047 -55.474998474121094,10.730999946594238 -55.474998474121094,6.451000213623047 C-55.474998474121094,6.451000213623047 -55.474998474121094,-6.451000213623047 -55.474998474121094,-6.451000213623047 C-55.474998474121094,-10.730999946594238 -52.005001068115234,-14.201000213623047 -47.724998474121094,-14.201000213623047 C-47.724998474121094,-14.201000213623047 -47.724998474121094,-14.201000213623047 -47.724998474121094,-14.201000213623047 C-47.724998474121094,-14.201000213623047 -47.20399856567383,-14.201000213623047 -46.23899841308594,-14.201000213623047"></path></g><g opacity="1" transform="matrix(1,0,0,1,100.44300079345703,154.8090057373047)"><path stroke-linecap="round" stroke-linejoin="round" fill-opacity="0" stroke="rgb(255,255,255)" stroke-opacity="1" stroke-width="13.5" d=" M-41.016998291015625,-33.08599853515625 C-28.673999786376953,-33.08599853515625 42.82099914550781,-33.08599853515625 42.82099914550781,-33.08599853515625 C47.72200012207031,-33.08599853515625 51.69499969482422,-29.113000869750977 51.69499969482422,-24.211999893188477 C51.69499969482422,-24.211999893188477 51.69499969482422,22.51099967956543 51.69499969482422,22.51099967956543 C51.69499969482422,28.35099983215332 46.96099853515625,33.084999084472656 41.12200164794922,33.084999084472656 C41.12200164794922,33.084999084472656 -41.12200164794922,33.084999084472656 -41.12200164794922,33.084999084472656 C-46.96099853515625,33.084999084472656 -51.69499969482422,28.35099983215332 -51.69499969482422,22.51099967956543 C-51.69499969482422,22.51099967956543 -51.69499969482422,-24.211999893188477 -51.69499969482422,-24.211999893188477 C-51.69499969482422,-29.113000869750977 -47.722999572753906,-33.08599853515625 -42.821998596191406,-33.08599853515625 C-42.821998596191406,-33.08599853515625 -42.821998596191406,-33.08599853515625 -42.821998596191406,-33.08599853515625 C-42.821998596191406,-33.08599853515625 -42.183998107910156,-33.08599853515625 -41.016998291015625,-33.08599853515625"></path></g><g opacity="1" transform="matrix(1,0,0,1,100.49700164794922,59.79999923706055)"><path stroke-linecap="round" stroke-linejoin="round" fill-opacity="0" stroke="rgb(255,255,255)" stroke-opacity="1" stroke-width="11" d=" M-0.5889999866485596,-20.535999298095703 C-26.875,-18.937000274658203 -0.21699999272823334,21.60099983215332 -0.21699999272823334,21.60099983215332 C-0.21699999272823334,21.60099983215332 27.268999099731445,-21.60099983215332 0,-20.565000534057617 C0,-20.565000534057617 0,-20.565000534057617 0,-20.565000534057617 C-0.19900000095367432,-20.55699920654297 -0.39500001072883606,-20.54800033569336 -0.5889999866485596,-20.535999298095703"></path></g><g opacity="1" transform="matrix(1,0,0,1,76.91799926757812,64.28500366210938)"><path stroke-linecap="round" stroke-linejoin="round" fill-opacity="0" stroke="rgb(255,255,255)" stroke-opacity="1" stroke-width="11" d=" M23.2450008392334,18.69300079345703 C20.62299919128418,14.37600040435791 0.23499999940395355,-18.143999099731445 -10.472999572753906,-3.6649999618530273 C-23.525999069213867,18.128999710083008 23.524999618530273,19.159000396728516 23.524999618530273,19.159000396728516 C23.524999618530273,19.159000396728516 23.524999618530273,19.159000396728516 23.524999618530273,19.159000396728516 C23.524999618530273,19.159000396728516 23.429000854492188,18.9950008392334 23.2450008392334,18.69300079345703"></path></g><g opacity="1" transform="matrix(1,0,0,1,123.96299743652344,64.28500366210938)"><path stroke-linecap="round" stroke-linejoin="round" fill-opacity="0" stroke="rgb(255,255,255)" stroke-opacity="1" stroke-width="11" d=" M-23.239999771118164,18.69300079345703 C-20.618999481201172,14.37600040435791 -0.23600000143051147,-18.145000457763672 10.465999603271484,-3.6649999618530273 C23.518999099731445,18.128999710083008 -23.520000457763672,19.159000396728516 -23.520000457763672,19.159000396728516 C-23.520000457763672,19.159000396728516 -23.520000457763672,19.159000396728516 -23.520000457763672,19.159000396728516 C-23.520000457763672,19.159000396728516 -23.423999786376953,18.9950008392334 -23.239999771118164,18.69300079345703"></path></g><g opacity="1" transform="matrix(1,0,0,1,0,0)"><path stroke-linecap="round" stroke-linejoin="miter" fill-opacity="0" stroke-miterlimit="10" stroke="rgb(255,255,255)" stroke-opacity="1" stroke-width="14.5" d=" M100,85.16699981689453 C100,85.16699981689453 100,185.16700744628906 100,185.16700744628906 M100,85.16699981689453 C100,85.16699981689453 100,85.16699981689453 100,85.16699981689453"></path></g></g><g transform="matrix(1.3875685930252075,0.024220099672675133,-0.024220099672675133,1.3875685930252075,22.6634521484375,44.86053466796875)" opacity="1" style="display: block;"><g opacity="1" transform="matrix(1,0,0,1,0,0)"><path fill="rgb(255,255,255)" fill-opacity="1" d=" M11.25,-6.875 C6.688000202178955,0.25 3.875,3.062000036239624 -6,3 C-0.5619999766349792,4.561999797821045 2,13.062000274658203 1,20.5 C6.061999797821045,13.187999725341797 11.5,10.75 19.125,11.125 C10.937000274658203,5.563000202178955 10.937999725341797,-0.5630000233650208 11.25,-6.875z"></path></g></g><g style="display: block;" transform="matrix(0.9556671380996704,-0.2740331292152405,0.2740331292152405,0.9556671380996704,50.81301498413086,24.102052688598633)" opacity="1"><g opacity="1" transform="matrix(1,0,0,1,0,0)"><path fill="rgb(255,255,255)" fill-opacity="1" d=" M11.25,-6.875 C6.688000202178955,0.25 3.875,3.062000036239624 -6,3 C-0.5619999766349792,4.561999797821045 2,13.062000274658203 1,20.5 C6.061999797821045,13.187999725341797 11.5,10.75 19.125,11.125 C10.937000274658203,5.563000202178955 10.937999725341797,-0.5630000233650208 11.25,-6.875z"></path></g></g></g></svg><svg xmlns="http://www.w3.org/2000/svg" width="400" height="400" viewBox="0 0 124 124" fill="none">
<rect width="124" height="124" rx="24" fill="#F97316"/>
<path d="M19.375 36.7818V100.625C19.375 102.834 21.1659 104.625 23.375 104.625H87.2181C90.7818 104.625 92.5664 100.316 90.0466 97.7966L26.2034 33.9534C23.6836 31.4336 19.375 33.2182 19.375 36.7818Z" fill="white"/>
<circle cx="63.2109" cy="37.5391" r="18.1641" fill="black"/>
<rect opacity="0.4" x="81.1328" y="80.7198" width="17.5687" height="17.3876" rx="4" transform="rotate(-45 81.1328 80.7198)" fill="#FDBA74"/>
</svg>