<svg xmlns="http://www.w3.org/2000/svg" xmlns:xlink="http://www.w3.org/1999/xlink" width="42" height="42" viewBox="0 0 42 42">
  <defs>
    <clipPath id="clip-path">
      <path id="Tracé_5831" data-name="Tracé 5831" d="M21,0A21,21,0,1,1,0,21,21,21,0,0,1,21,0Z" transform="translate(54.387 -64.084)" fill="#c73a5f" stroke="#e3e3e3" stroke-width="2"/>
    </clipPath>
  </defs>
  <g id="IcoMinijeuFiltre" transform="translate(-54.387 64.084)">
    <g id="Groupe_de_masques_2990" data-name="Groupe de masques 2990" clip-path="url(#clip-path)">
      <path id="Tracé_2971" data-name="Tracé 2971" d="M-4796.254-10636.138l4.873-4.937s2.821,4.07,5.874,1.25-1.812-5.374-1.812-5.374l4.936-4.936,4.748,4.5s2.18-3.932,5.318-.834-1.256,5.4-1.256,5.4l4.749,4.937-4.749,4.874s-2.476-4.692-5.423-1.574,1.362,5.51,1.362,5.51l-4.748,4.936-5.186-4.936s-2.548,3.848-5.173,1.033,1.361-4.969,1.361-4.969Z" transform="translate(10712.02 -4825.41) rotate(-90)" fill="none" stroke="#fff" stroke-width="2"/>
    </g>
  </g>
</svg>
