<?xml version="1.0" encoding="UTF-8"?>
<svg id="uuid-f6be011f-be91-4552-b2df-382b9804d585" data-name="Calque 2" xmlns="http://www.w3.org/2000/svg" width="32" height="33" xmlns:xlink="http://www.w3.org/1999/xlink" viewBox="0 0 32 33">
  <defs>
    <clipPath id="uuid-68c05924-d726-4d9f-a831-27bab2a8ca6a">
      <rect width="32" height="33" fill="none" stroke-width="0"/>
    </clipPath>
    <filter id="uuid-e0f30fd0-6c18-4bb6-9a61-3ac47aad6871" data-name="drop-shadow-1" filterUnits="userSpaceOnUse">
      <feOffset dx="0" dy="0"/>
      <feGaussianBlur result="uuid-5bf5da0f-397d-4355-8bc1-4a99e3a0c749" stdDeviation="1"/>
      <feFlood flood-color="#000" flood-opacity=".16"/>
      <feComposite in2="uuid-5bf5da0f-397d-4355-8bc1-4a99e3a0c749" operator="in"/>
      <feComposite in="SourceGraphic"/>
    </filter>
  </defs>
  <g id="uuid-8b5b2796-d679-404b-b7b9-9389a172abbe" data-name="Calque 1">
    <g id="uuid-b2e136b5-4f85-414a-8838-16397efffdcc" data-name="filter__icon__remove-fiery-off">
      <g clip-path="url(#uuid-68c05924-d726-4d9f-a831-27bab2a8ca6a)">
        <g id="uuid-7595bdd7-30e9-41ea-a919-dc559b0b0886" data-name="Groupe de masques 3036">
          <g filter="url(#uuid-e0f30fd0-6c18-4bb6-9a61-3ac47aad6871)">
            <path id="uuid-8d630d4f-1022-4601-a809-c8c5b5482669" data-name="Tracé 774-2" d="m29.84,16.03c0,7.64-6.2,13.83-13.84,13.83-2.84,0-5.61-.87-7.93-2.5-5.89-2.57-.44-1.95-2.8-4.32s-3.09-4.14-3.09-7.01c0-7.64,6.19-13.83,13.83-13.83,2.78-.04,5.56.1,8.32.43,5.35.48-.83,3.46,3.47,6.18,2.04,2.08,2.04,4.58,2.04,7.23" fill="#fff" stroke-width="0"/>
          </g>
          <path d="m17.87,16.48l2.58-2.58c.39-.39.39-1.02,0-1.41s-1.02-.39-1.41,0l-2.58,2.58-2.58-2.58c-.39-.39-1.02-.39-1.41,0s-.39,1.02,0,1.41l2.58,2.58-2.58,2.58c-.39.39-.39,1.02,0,1.41.2.2.45.29.71.29s.51-.1.71-.29l2.58-2.58,2.58,2.58c.2.2.45.29.71.29s.51-.1.71-.29c.39-.39.39-1.02,0-1.41l-2.58-2.58Z" fill="#4b8157" stroke-width="0"/>
        </g>
      </g>
    </g>
  </g>
</svg>