<?xml version="1.0" encoding="UTF-8"?>
<svg id="uuid-a2ed7585-9e8d-42c4-9443-810e5e40d99b" data-name="Calque 2" xmlns="http://www.w3.org/2000/svg" width="32" height="33" xmlns:xlink="http://www.w3.org/1999/xlink" viewBox="0 0 32 33">
  <defs>
    <clipPath id="uuid-1db9f1a4-fe53-40ad-bef9-146311709937">
      <rect width="32" height="33" fill="none" stroke-width="0"/>
    </clipPath>
    <filter id="uuid-17ee1033-b94e-44cd-9c7d-9beb714a0c0a" data-name="drop-shadow-1" filterUnits="userSpaceOnUse">
      <feOffset dx="0" dy="0"/>
      <feGaussianBlur result="uuid-dd3ef8f9-8c37-42dd-b19e-0f3ebf4d563a" stdDeviation="1"/>
      <feFlood flood-color="#000" flood-opacity=".16"/>
      <feComposite in2="uuid-dd3ef8f9-8c37-42dd-b19e-0f3ebf4d563a" operator="in"/>
      <feComposite in="SourceGraphic"/>
    </filter>
  </defs>
  <g id="uuid-51af3e7e-b497-4277-982b-36aeeb9c0d67" data-name="Calque 1">
    <g id="uuid-202b89d4-6760-4c68-b7bc-2ff2a55917f4" data-name="filter__icon__remove-lively-on">
      <g clip-path="url(#uuid-1db9f1a4-fe53-40ad-bef9-146311709937)">
        <g id="uuid-83586117-7467-4b98-bce4-237bfd16f2b0" data-name="Groupe de masques 3036">
          <g filter="url(#uuid-17ee1033-b94e-44cd-9c7d-9beb714a0c0a)">
            <g>
              <path id="uuid-c9766fa6-3663-4f75-bd18-b4f6f194647f" data-name="Tracé 774-2" d="m29.84,16.03c0,7.64-6.2,13.83-13.84,13.83-2.84,0-5.61-.87-7.93-2.5-5.89-2.57-.44-1.95-2.8-4.32s-3.09-4.14-3.09-7.01c0-7.64,6.19-13.83,13.83-13.83,2.78-.04,5.56.1,8.32.43,5.35.48-.83,3.46,3.47,6.18,2.04,2.08,2.04,4.58,2.04,7.23" fill="#ef881b" stroke-width="0"/>
              <path d="m16.01,30.37h0c-2.96,0-5.8-.9-8.22-2.59-2.36-1.01-2.92-1.56-3.05-2.11-.11-.48.19-.83.4-1.07.31-.36.45-.52-.22-1.2-2.42-2.44-3.24-4.3-3.24-7.36,0-7.9,6.43-14.33,14.33-14.33,2.78-.04,5.61.1,8.38.43,1.37.12,2.16.42,2.53.97.41.6.2,1.3,0,1.98-.33,1.12-.64,2.17,1.15,3.3l.09.07c2.18,2.23,2.18,4.95,2.18,7.58h0c0,3.83-1.49,7.43-4.2,10.13-2.71,2.71-6.31,4.2-10.13,4.2Zm.96-27.67c-.32,0-.64,0-.95,0-7.36,0-13.34,5.98-13.34,13.33,0,2.79.72,4.41,2.95,6.65,1.17,1.18.82,1.93.27,2.56-.07.08-.17.19-.18.24.03.05.32.44,2.56,1.42,2.34,1.63,4.98,2.46,7.73,2.46h0c3.56,0,6.91-1.39,9.43-3.9,2.52-2.52,3.91-5.87,3.91-9.43h0c0-2.63,0-4.91-1.85-6.84-2.38-1.53-1.86-3.25-1.53-4.4.15-.49.27-.92.13-1.13-.1-.15-.47-.42-1.8-.54-2.42-.29-4.88-.43-7.32-.43Z" fill="#fff" stroke-width="0"/>
            </g>
          </g>
          <path d="m17.87,16.48l2.58-2.58c.39-.39.39-1.02,0-1.41s-1.02-.39-1.41,0l-2.58,2.58-2.58-2.58c-.39-.39-1.02-.39-1.41,0s-.39,1.02,0,1.41l2.58,2.58-2.58,2.58c-.39.39-.39,1.02,0,1.41.2.2.45.29.71.29s.51-.1.71-.29l2.58-2.58,2.58,2.58c.2.2.45.29.71.29s.51-.1.71-.29c.39-.39.39-1.02,0-1.41l-2.58-2.58Z" fill="#fff" stroke-width="0"/>
        </g>
      </g>
    </g>
  </g>
</svg>