<?xml version="1.0" encoding="UTF-8"?>
<svg id="uuid-5e9a326d-f315-41af-80bd-6b60f8daedb5" data-name="Calque 2" xmlns="http://www.w3.org/2000/svg" width="78" height="76" xmlns:xlink="http://www.w3.org/1999/xlink" viewBox="0 0 78 76">
  <defs>
    <clipPath id="uuid-63cc79a2-ee4f-4e41-bc05-b8864ef36ea6">
      <rect width="78" height="76" fill="none" stroke-width="0"/>
    </clipPath>
    <clipPath id="uuid-c296c8b4-6a61-41e6-87f1-cb05db33c3f3">
      <rect x="13.46" y="5.2" width="52.88" height="60.71" fill="none" stroke-width="0"/>
    </clipPath>
  </defs>
  <g id="uuid-4d73ec17-dffc-47a5-9bff-0b8003042992" data-name="Calque 1">
    <g id="uuid-a3e93b16-6455-40d7-8c58-16d67f66b7c5" data-name="personalization__save">
      <g clip-path="url(#uuid-63cc79a2-ee4f-4e41-bc05-b8864ef36ea6)">
        <g id="uuid-0dc88424-628c-49fe-9533-52544978d2e0" data-name="Validation">
          <path id="uuid-79e41f91-1957-4ff7-8598-4592bba99229" data-name="fond" d="m71.09,38.55c0,17.98-14.58,32.55-32.55,32.55-6.68,0-13.2-2.06-18.67-5.89-13.87-6.04-1.04-4.58-6.6-10.17-5.56-5.59-7.27-9.74-7.27-16.48C6,20.57,20.57,6,38.55,6c6.54-.1,13.09.23,19.59,1,12.58,1.14-1.96,8.14,8.17,14.54,4.79,4.9,4.79,10.77,4.79,17.01" fill="#fff" stroke-width="0"/>
          <g id="uuid-5e1d1415-8eef-4e28-a70e-5954f3d26100" data-name="dressing_favorite_icon_save-sweet">
            <g clip-path="url(#uuid-c296c8b4-6a61-41e6-87f1-cb05db33c3f3)">
              <path id="uuid-859a227d-f03b-4394-aa10-4115442dde56" data-name="Disc" d="m57.15,43.96l-5.52-16.04c-.17-.49-.53-.9-.99-1.12l-9.8-4.78c-.47-.23-1.01-.26-1.5-.09l-16.04,5.52c-2.63.91-4.03,3.78-3.13,6.41l7.03,20.41c.72,2.09,2.68,3.4,4.77,3.4.54,0,1.1-.09,1.64-.28l2.88-.99s.02,0,.04,0c0,0,.02,0,.03-.01l14.52-5s.02,0,.03,0c.01,0,.02-.01.03-.01l2.89-.99h0c2.63-.91,4.03-3.78,3.12-6.41Zm-20.05,8.1l-2.74-7.96,10.88-3.75,2.74,7.96-10.87,3.75Zm15.64-5.39l-1.06.37-3.38-9.81c-.17-.49-.53-.9-.99-1.12-.47-.23-1.01-.26-1.5-.09l-14.58,5.02c-1.02.35-1.57,1.47-1.21,2.49l3.38,9.81-1.06.36c-.59.2-1.23-.11-1.43-.7l-7.03-20.41c-.2-.59.11-1.23.7-1.43l1.06-.37,1.87,5.44c.28.81,1.04,1.32,1.85,1.32.21,0,.43-.03.64-.11l11.67-4.02c1.02-.35,1.57-1.47,1.21-2.49-.35-1.02-1.47-1.57-2.49-1.21l-9.82,3.38-1.23-3.59,10.5-3.62,8.34,4.07,5.26,15.27c.2.59-.11,1.23-.7,1.43Z" fill="#c73a5f" stroke-width="0"/>
              <g id="uuid-5a0183f5-3780-404a-bdbf-b7700257de7f" data-name="étoile">
                <g id="uuid-23ee1268-2b5d-4108-a7b7-3e769c9c8ab9" data-name="forme">
                  <path d="m52.44,14.29l.55,4.4c.03.23.17.43.37.54l3.94,2.04c.52.27.5,1.01-.02,1.26l-4.02,1.88c-.21.1-.36.29-.39.52l-.72,4.38c-.09.57-.81.79-1.2.37l-3.03-3.24c-.16-.17-.39-.25-.62-.21l-4.39.66c-.57.09-1-.52-.72-1.03l2.14-3.89c.11-.2.12-.45.01-.65l-1.99-3.97c-.26-.52.19-1.11.76-1l4.36.84c.23.04.46-.03.62-.19l3.16-3.12c.41-.41,1.12-.16,1.19.41Z" fill="#ffb827" stroke-width="0"/>
                </g>
                <path id="uuid-382ee9ad-ef0d-4b4b-8165-9b39aebd385e" data-name="contour" d="m51.61,13.68c.37-.07.78.17.83.6l.55,4.4c.03.23.17.43.37.54l3.94,2.04c.52.27.5,1.01-.02,1.26l-4.02,1.89c-.21.1-.36.29-.39.52l-.72,4.38c-.05.31-.29.52-.56.57-.22.04-.47-.02-.65-.21l-3.03-3.24c-.16-.17-.39-.25-.62-.21l-4.39.66c-.57.09-1-.52-.72-1.03l2.14-3.89c.11-.2.12-.45.01-.65l-1.99-3.97c-.22-.43.06-.92.49-1,.09-.02.18-.02.27,0l4.36.84c.09.02.18.02.27,0,.13-.03.26-.09.36-.19l3.16-3.12c.1-.1.23-.16.35-.19m-.42-2.12h0c-.55.11-1.05.38-1.45.77l-2.61,2.58-3.6-.69c-.37-.07-.74-.07-1.1,0-.87.17-1.62.75-2.01,1.55-.4.81-.39,1.73.01,2.54l1.64,3.28-1.77,3.21c-.53.96-.47,2.12.16,3.02s1.69,1.36,2.78,1.19l3.63-.55,2.51,2.68c.68.73,1.67,1.04,2.64.85,1.18-.23,2.07-1.15,2.27-2.34l.6-3.62,3.32-1.56c.99-.47,1.62-1.44,1.65-2.54.02-1.1-.57-2.09-1.55-2.6l-3.26-1.69-.46-3.64c-.1-.79-.52-1.5-1.16-1.96-.64-.47-1.46-.64-2.24-.49h0Z" fill="#fff" stroke-width="0"/>
              </g>
              <g id="uuid-649f0264-50d3-4e9a-9476-2493dd44dfb3" data-name="étoile">
                <g id="uuid-51a72f29-0b50-4fe4-9d9b-1f7f5bc1074b" data-name="forme">
                  <path d="m56.65,32.52l2.55,1.98c.13.1.31.13.47.08l3.08-.98c.4-.13.78.26.64.66l-1.09,3.04c-.06.16-.03.33.07.47l1.88,2.62c.25.34,0,.82-.43.81l-3.23-.1c-.17,0-.33.07-.43.21l-1.91,2.6c-.25.34-.78.25-.9-.16l-.9-3.1c-.05-.16-.17-.29-.33-.34l-3.07-1.02c-.4-.13-.48-.67-.13-.91l2.67-1.82c.14-.09.22-.25.22-.42l.02-3.23c0-.42.49-.66.82-.4Z" fill="#ffb827" stroke-width="0"/>
                </g>
                <path id="uuid-9e2ef7e6-f2d9-4a76-bc94-b0b233174a1e" data-name="contour" d="m55.91,32.64c.15-.23.49-.31.74-.12l2.55,1.98c.13.1.31.13.47.08l3.08-.98c.4-.13.78.26.64.66l-1.09,3.04c-.06.16-.03.33.07.47l1.88,2.62c.14.19.12.42,0,.58-.09.14-.25.23-.44.23l-3.23-.1c-.17,0-.33.07-.43.21l-1.91,2.6c-.25.34-.78.25-.9-.16l-.9-3.1c-.05-.16-.17-.29-.33-.34l-3.07-1.02c-.34-.11-.44-.5-.27-.77.04-.05.08-.1.14-.14l2.67-1.82c.06-.04.1-.08.14-.14.05-.08.09-.18.09-.28l.02-3.23c0-.11.03-.2.08-.28m-1.31-.87h0c-.23.34-.35.73-.35,1.14v2.67s-2.22,1.5-2.22,1.5c-.22.15-.41.34-.56.57-.36.54-.45,1.22-.23,1.84.21.62.69,1.09,1.32,1.3l2.54.84.75,2.56c.22.77.85,1.33,1.64,1.47.79.14,1.57-.17,2.04-.82l1.58-2.15,2.67.08c.72.02,1.4-.32,1.8-.93.49-.73.47-1.66-.04-2.37l-1.56-2.17.9-2.51c.27-.75.09-1.58-.46-2.15-.55-.58-1.37-.78-2.13-.54l-2.54.81-2.11-1.64c-.46-.35-1.04-.5-1.61-.41-.57.09-1.08.42-1.4.9h0Z" fill="#fff" stroke-width="0"/>
              </g>
              <g id="uuid-6aa12b38-6f63-4226-ba90-c84e5aa8687f" data-name="étoile">
                <g id="uuid-8b00676f-5ca9-4743-9feb-1e782e897ab2" data-name="forme">
                  <path d="m21.48,43.62l2.76,2.76c.14.14.35.21.55.17l3.84-.71c.5-.09.89.43.66.89l-1.77,3.48c-.09.18-.09.4,0,.57l1.86,3.43c.24.45-.13.98-.64.9l-3.85-.61c-.2-.03-.4.04-.54.18l-2.68,2.83c-.35.37-.98.18-1.06-.33l-.61-3.85c-.03-.2-.16-.37-.34-.46l-3.52-1.68c-.46-.22-.47-.87-.02-1.11l3.47-1.78c.18-.09.3-.27.33-.47l.51-3.87c.07-.51.69-.72,1.05-.36Z" fill="#ffb827" stroke-width="0"/>
                </g>
                <path id="uuid-0146c54c-607d-4075-a90d-94ab6eb9e1ef" data-name="contour" d="m20.57,43.65c.22-.25.63-.3.9-.03l2.76,2.76c.14.14.35.21.55.17l3.84-.71c.5-.09.89.43.66.89l-1.77,3.48c-.09.18-.09.4,0,.57l1.86,3.43c.13.25.08.52-.08.7-.13.15-.33.24-.56.2l-3.85-.61c-.2-.03-.4.04-.54.18l-2.68,2.83c-.35.37-.98.18-1.06-.33l-.61-3.85c-.03-.2-.16-.37-.34-.46l-3.52-1.68c-.38-.18-.45-.67-.2-.96.05-.06.11-.11.19-.15l3.47-1.77c.07-.04.13-.09.19-.15.08-.09.13-.2.15-.32l.51-3.87c.02-.13.07-.24.14-.32m-1.44-1.24h0c-.32.37-.53.83-.59,1.32l-.42,3.2-2.87,1.47c-.29.15-.55.35-.76.6-.51.59-.72,1.4-.56,2.17.16.77.67,1.41,1.38,1.75l2.91,1.39.51,3.19c.15.95.82,1.72,1.74,2.01.92.29,1.91.03,2.57-.67l2.22-2.34,3.19.5c.86.14,1.72-.18,2.29-.84.69-.8.81-1.92.31-2.85l-1.54-2.83,1.46-2.88c.44-.86.35-1.88-.23-2.65-.58-.77-1.53-1.14-2.48-.97l-3.17.59-2.28-2.28c-.49-.49-1.17-.76-1.87-.73-.7.03-1.36.34-1.82.87h0Z" fill="#fff" stroke-width="0"/>
              </g>
            </g>
          </g>
        </g>
      </g>
    </g>
  </g>
</svg>