<?xml version="1.0" encoding="UTF-8"?>
<svg id="uuid-c1c702d1-64b9-4005-a348-aac89fc475fb" data-name="Calque 2" xmlns="http://www.w3.org/2000/svg" width="59" height="59" xmlns:xlink="http://www.w3.org/1999/xlink" viewBox="0 0 59 59">
  <defs>
    <clipPath id="uuid-4aff4533-60c9-4337-99ad-206879cd227d">
      <rect width="59" height="59" fill="none" stroke-width="0"/>
    </clipPath>
  </defs>
  <g id="uuid-fb0e893b-8ab2-4047-98ab-b9f9748d9a1d" data-name="Calque 1">
    <g id="uuid-2030ffff-1fc9-4df9-b335-c290f287d6c4" data-name="personalization__categories__ring">
      <g clip-path="url(#uuid-4aff4533-60c9-4337-99ad-206879cd227d)">
        <g>
          <path d="m15.52,20.99c2.01,3.2,6.09,7.74,6.75,9.62.52,1.46,1.92,3.51,3.89,5.36,2.3,2.17,2.94,5.2,3.3,6.34.27.88.69,1.46,1.13.7.41-.41.7-1.3.53-2.3-.21-1.2-.54-1.91-1.1-3.1-.16-.34-.3-.48-.28-1.81,1.2.04,2.1,0,2.39.02.56.05,2.93,1.01,5.27,1.76.89.29,2.32,1.12,3.75,1.5,1.05.28,2.04.82,2.83.74.79-.09,1.24-.63.25-1.33,1.66.78,3.86-.39.77-1.59,1.03.05,1.38-.67.45-1.36-.9-.67-1.31-.74-2.37-1.34-1.11-.63-1.63-.98-2.46-1.6-.89-.66-2.09-1.47-3.22-2.13,1.14.07,1.83.07,2.46.39.52.26,1.2.66,1.98,1.01.32.14.57.31,1.11.64,1.57.97,2.69,0,1.6-.71-.48-.31-2.69-1.64-3.16-1.98-.66-.47-1.9-1.2-2.97-1.31-1.43-.14-1.52-.15-2.42-.38s-1.16-.85-3.14-1.55c-1.99-.7-2.37-.96-3.43-1.3-1.26-.41-1.37-.16-2.2-.53-1.11-.49-5.3-5.94-6.88-9.65,0,0-6.73,2.86-4.84,5.87Z" fill="#ed6d7b" opacity=".3" stroke-width="0"/>
          <g>
            <path d="m25.21,22.8s0,0,0,0c0,0,0,0,0,0Z" fill="#ed6d7b" stroke-width="0"/>
            <path d="m24.52,20.29c-.48-.41-1.17-.73-1.76-.91.21.34.5.71.71,1.04.19.11.44.23.61.38.48.4.68.84.62,1.31h0c-.02.12-.05.25-.1.38-.57,1.41-2.99,2.62-4.46,2.53-1.01-.06-1.75-.35-2.24-.67-.2-.14-.37-.29-.48-.42-.1-.13-.17-.24-.17-.44-.18-.26-.38-.49-.54-.74-.06.19-.12.27-.15.46-.07.37.05.76.34,1.13.39.49,1.04.88,1.82,1.11,0,0,0,0,0,0,.42.12.88.21,1.37.24.06,0,.13,0,.2,0,1.73,0,4.24-1.25,4.9-2.9,0,0,0,0,0,0,0-.02.02-.03.02-.05.36-.89.1-1.77-.71-2.46Z" fill="#ed6d7b" stroke-width="0"/>
          </g>
          <path d="m26.54,22.15c-.76-.64-1.7-1.02-2.67-1.16.5.74,1.07,1.44,1.59,2.06.07.05.14.11.21.16.36.3.47.61.53.87h0c.07.29,0,.55-.08.75-.53,1.3-2.68,2.4-4.42,2.27-1.06-.08-1.82-.39-2.28-.71-.16-.11-.28-.23-.36-.34-.1-.12-.13-.25-.12-.33-.36-.47-.69-.88-1.03-1.35-.16.37-.31.7-.38,1.1h0c-.09.49.06.99.41,1.45.6.77,1.72,1.32,3.06,1.53.19.03.39.05.59.07.13,0,.26.01.39.01,2.23,0,4.67-1.38,5.42-3.11,0-.02.02-.04.03-.06.47-1.16.14-2.33-.91-3.21Z" fill="#ed6d7b" stroke-width="0"/>
          <path d="m37.27,31.75c-.09-.09-.21-.11-.34-.08-.03-.02-.07-.05-.1-.07-.37-.17-.85.06-1.06.52-.15.32-.13.66.02.9-.16.32-.3.67-.4,1.03.17.08.35.16.53.25.09-.34.22-.68.38-.97.32.01.65-.21.82-.57.01-.03.02-.06.03-.09,0,.01,0,.02,0,.03l.28.22s.01-.08.02-.12c.06-.51,0-.88-.17-1.05Z" fill="#ed6d7b" stroke-width="0"/>
        </g>
      </g>
    </g>
  </g>
</svg>