<?xml version="1.0" encoding="UTF-8"?>
<svg id="uuid-5d8fd623-9b09-4ace-9824-824f1e708d5d" data-name="Calque 2" xmlns="http://www.w3.org/2000/svg" width="64" height="64" xmlns:xlink="http://www.w3.org/1999/xlink" viewBox="0 0 64 64">
  <defs>
    <clipPath id="uuid-f6c1003d-4b57-4b60-ae28-aacc893f4110">
      <circle cx="32" cy="32" r="28.5" fill="none" stroke-width="0"/>
    </clipPath>
  </defs>
  <g id="uuid-1d65f1a4-690c-46dd-ba46-8ed5bba52d59" data-name="Calque 1">
    <g id="uuid-0e6a95d7-97cd-49c7-94dc-f911deb2e38c" data-name="personalization__categories__background-fiery">
      <circle cx="32" cy="32" r="32" fill="#6ab571" stroke-width="0"/>
      <g>
        <g clip-path="url(#uuid-f6c1003d-4b57-4b60-ae28-aacc893f4110)">
          <g opacity=".5">
            <rect x="10.34" y=".56" width="40.31" height="15.22" rx="7.61" ry="7.61" transform="translate(3.09 23.84) rotate(-44.76)" fill="#fff" stroke-width="0"/>
            <rect x="10.36" y="11.15" width="53.42" height="13.57" rx="6.79" ry="6.79" transform="translate(-1.88 31.3) rotate(-44.76)" fill="#fff" stroke-width="0"/>
            <rect x="16.63" y="27.39" width="56.53" height="15.22" rx="7.61" ry="7.61" transform="translate(-11.63 41.75) rotate(-44.76)" fill="#fff" stroke-width="0"/>
          </g>
        </g>
        <path d="m22.24,41.68l-2.15-2.15c-.43-.43-1.12-.43-1.55,0l-5.84,5.84c-.43.43-.43,1.12,0,1.55l2.15,2.15c.43.43,1.12.43,1.55,0l5.84-5.84c.43-.43.43-1.12,0-1.55Zm-7.52,5.37c-.32-.32-.32-.83,0-1.15s.83-.32,1.15,0,.32.83,0,1.15-.83.32-1.15,0Z" fill="#fff" stroke-width="0"/>
        <path d="m26.84,11.38h0c-.5.5-.55,1.27-.17,1.83l1.99-1.99c-.56-.38-1.33-.33-1.83.17Z" fill="#fff" stroke-width="0"/>
        <g>
          <path d="m46.87,35.14l.85-.85h0s2.03-2.03,2.03-2.03h0s.64-.64.64-.64c.92-.92.92-2.43,0-3.36l-16.84-16.84c-.92-.92-2.43-.92-3.36,0l-.64.64-2.03,2.03-.85.85c-.92.92-.92,2.43,0,3.36l16.84,16.84c.92.92,2.43.92,3.36,0Z" fill="#fff" stroke-width="0"/>
          <g>
            <path d="m52.82,35.58c-.07-.22-.19-.43-.36-.61l-1.83-1.83-2.03,2.03.84.84-6.73,6.73-11.81-11.81c-.28-.28-.66-.42-1.03-.42-.37,0-.75.13-1.03.42l-4.46,4.46c-.55-.37-1.31-.32-1.8.17l-3.14,3.14c.41-.04.83.1,1.14.41l2.2,2.2c.29.29.42.67.41,1.05l3.09-3.09c.5-.5.55-1.3.13-1.85l3.45-3.45,11.81,11.81c.18.18.39.3.61.36.5.16,1.06.04,1.45-.35l8.75-8.75c.39-.39.51-.95.35-1.45Z" fill="#fff" stroke-width="0"/>
            <g>
              <path d="m15.29,45.66c-.21,0-.42.08-.58.24-.32.32-.32.83,0,1.15.16.16.37.24.58.24s.42-.08.58-.24c.32-.32.32-.83,0-1.15-.16-.16-.37-.24-.58-.24Z" fill="#6ab571" stroke-width="0"/>
              <path d="m53.9,35.24c-.11-.39-.34-.77-.64-1.07l-1.83-1.83-.07-.07h0s0-.01,0-.01c1.2-1.38,1.14-3.47-.17-4.78l-16.84-16.84c-.66-.66-1.54-1.02-2.48-1.02-.85,0-1.65.31-2.28.86l-.28-.19c-.43-.29-.93-.45-1.46-.45-.69,0-1.33.27-1.82.75-.88.88-1,2.25-.3,3.27l.18.26-.03.03c-.66.66-1.02,1.54-1.02,2.48s.36,1.82,1.02,2.48l16.84,16.84c.66.66,1.54,1.02,2.48,1.02s1.82-.36,2.48-1.02l.04-.04.07.07.04.04-5.13,5.13-11.01-11.01c-.48-.48-1.13-.75-1.82-.75h-.04s0,0,0,0c-.69,0-1.34.27-1.82.75l-3.93,3.93c-.17-.03-.34-.05-.52-.05-.68,0-1.32.26-1.8.75l-3.14,3.14-.59.59c-.1.07-.2.15-.29.24l-5.84,5.84c-.87.87-.87,2.28,0,3.15l2.15,2.15c.42.42.98.65,1.58.65s1.16-.23,1.58-.65l4.75-4.75v.05s2.02-2.03,2.02-2.03l3.09-3.09c.64-.64.87-1.55.67-2.39l2.11-2.11,11.01,11.01c.3.3.68.53,1.1.65.23.07.49.11.75.11.69,0,1.33-.27,1.82-.75l8.75-8.75c.68-.68.92-1.67.63-2.59ZM26.83,11.38c.28-.28.65-.42,1.01-.42.29,0,.57.08.81.25l-1.99,1.99c-.38-.56-.33-1.33.17-1.83Zm18.36,24.45c-.61,0-1.22-.23-1.68-.69l-16.84-16.84c-.92-.92-.92-2.43,0-3.36l.85-.85,2.03-2.03.64-.64c.46-.46,1.07-.69,1.68-.69s1.22.23,1.68.69l16.84,16.84c.92.92.92,2.43,0,3.36l-.64.64h0s-2.03,2.03-2.03,2.03h0s-.85.84-.85.84c-.46.46-1.07.69-1.68.69Zm-28.8,13.24c-.21.21-.49.32-.77.32s-.56-.11-.77-.32l-2.15-2.15c-.43-.43-.43-1.12,0-1.55l5.41-5.41,1.43-.14s0,0,.01,0c.07,0,.15.01.22.08l2.2,2.2c.07.07.08.16.08.21l-.04,1.15-5.61,5.61Zm36.07-12.04l-8.75,8.75c-.28.28-.65.42-1.01.42-.15,0-.29-.02-.44-.07-.22-.07-.43-.19-.61-.36l-11.81-11.81-3.45,3.45c.41.55.37,1.35-.13,1.85l-2.65,2.65c-.1-.38-.28-.73-.57-1.03l-2.15-2.15c-.27-.27-.59-.45-.95-.55l2.62-2.62c.28-.28.64-.41,1-.41.28,0,.56.08.8.24l4.46-4.46c.28-.28.65-.42,1.02-.42,0,0,.01,0,.02,0,0,0,.01,0,.02,0,.37,0,.74.14,1.02.42l11.81,11.81,6.73-6.73-.84-.84,2.03-2.03,1.83,1.83c.18.18.3.39.36.61.16.49.04,1.06-.35,1.45Z" fill="#6ab571" stroke-width="0"/>
            </g>
          </g>
        </g>
        <path id="uuid-8b9a5811-1145-4c83-a32b-8161489502b0" data-name="forme" d="m14.42,30.01l-.79,1.41c-.04.07-.04.16,0,.24l.72,1.45c.09.19-.07.41-.28.36l-1.59-.31c-.08-.02-.17,0-.23.07l-1.16,1.13c-.15.15-.41.06-.43-.15l-.19-1.61c0-.08-.06-.16-.13-.2l-1.43-.75c-.19-.1-.18-.37.01-.46l1.47-.68c.08-.04.13-.11.14-.19l.27-1.59c.04-.21.3-.29.44-.13l1.1,1.19c.06.06.14.09.22.08l1.6-.23c.21-.03.36.19.26.38Z" fill="#fff" stroke-width="0"/>
        <path id="uuid-a33958ea-7543-4be0-b594-533ba444b003" data-name="forme" d="m14.88,25.99l-.72.24s-.07.04-.08.08l-.21.73c-.03.1-.15.12-.21.04l-.45-.61s-.06-.05-.1-.05l-.76.03c-.1,0-.16-.11-.1-.19l.44-.62s.03-.07.02-.11l-.26-.72c-.03-.09.05-.19.15-.16l.73.23s.08,0,.11-.02l.6-.47c.08-.06.19,0,.19.09v.76s.03.08.06.1l.63.43c.08.06.07.18-.03.21Z" fill="#fff" stroke-width="0"/>
        <path id="uuid-ce0be3ac-46db-4006-a221-8f86ad2c5bb0" data-name="forme" d="m52.88,19.43l-1.39.82c-.07.04-.12.12-.13.2l-.11,1.61c-.01.21-.27.31-.42.17l-1.21-1.07c-.06-.06-.15-.08-.23-.06l-1.57.39c-.21.05-.38-.16-.3-.35l.64-1.48c.03-.08.03-.17-.02-.24l-.86-1.37c-.11-.18.03-.41.24-.39l1.61.15c.08,0,.17-.03.22-.09l1.04-1.24c.14-.16.4-.1.45.11l.35,1.58c.02.08.08.15.15.18l1.5.61c.2.08.22.35.03.46Z" fill="#fff" stroke-width="0"/>
        <path id="uuid-964a3962-9461-4759-986a-99fc0732d58b" data-name="forme" d="m45.62,15.77l-.36-.8s-.06-.07-.1-.08l-.87-.16c-.11-.02-.15-.16-.07-.24l.65-.59s.05-.08.04-.12l-.12-.87c-.02-.11.11-.2.21-.14l.77.44s.09.02.13,0l.8-.38c.1-.05.22.04.2.15l-.18.86s0,.09.04.12l.61.64c.08.08.03.22-.09.23l-.88.09s-.09.03-.11.07l-.42.78c-.05.1-.2.1-.25,0Z" fill="#fff" stroke-width="0"/>
        <path id="uuid-50868f99-1ad0-4fba-8117-75bd9506e322" data-name="forme" d="m39.21,53.9l-.86,1.05c-.04.05-.06.13-.04.2l.38,1.3c.05.17-.12.32-.28.26l-1.26-.49c-.07-.03-.14-.02-.2.02l-1.12.76c-.15.1-.34-.01-.33-.19l.08-1.35c0-.07-.03-.14-.08-.18l-1.07-.83c-.14-.11-.09-.33.08-.38l1.31-.34c.07-.02.12-.07.15-.13l.46-1.28c.06-.17.29-.19.38-.04l.73,1.14c.04.06.1.1.17.1l1.36.04c.18,0,.27.21.16.35Z" fill="#fff" stroke-width="0"/>
        <path id="uuid-3476df03-7224-4fb0-a771-3b2820f415cb" data-name="forme" d="m34.45,51.48l-.83.19s-.08.04-.1.08l-.32.79c-.04.1-.18.11-.24.02l-.44-.73s-.06-.06-.11-.07l-.85-.06c-.11,0-.17-.14-.09-.22l.56-.64s.04-.08.03-.12l-.21-.83c-.03-.11.08-.2.18-.16l.78.34s.09.01.13,0l.72-.45c.09-.06.22.02.21.13l-.08.85s.01.09.05.12l.66.55c.09.07.05.21-.06.24Z" fill="#fff" stroke-width="0"/>
      </g>
      <path d="m32,61.5c-16.27,0-29.5-13.23-29.5-29.5S15.73,2.5,32,2.5s29.5,13.23,29.5,29.5-13.23,29.5-29.5,29.5Zm0-57c-15.16,0-27.5,12.34-27.5,27.5s12.34,27.5,27.5,27.5,27.5-12.34,27.5-27.5S47.16,4.5,32,4.5Z" fill="#fff" stroke-width="0"/>
    </g>
  </g>
</svg>