<?xml version="1.0" encoding="UTF-8"?>
<svg id="uuid-7abdd2f5-76b8-4041-beba-cfd037246235" data-name="Calque 2" xmlns="http://www.w3.org/2000/svg" width="59" height="59" xmlns:xlink="http://www.w3.org/1999/xlink" viewBox="0 0 59 59">
  <defs>
    <clipPath id="uuid-e5e7c011-d309-416c-be63-f360f4b1725a">
      <rect width="59" height="59" fill="none" stroke-width="0"/>
    </clipPath>
  </defs>
  <g id="uuid-694c9d08-3db6-4816-a354-824d966cfdaf" data-name="Calque 1">
    <g id="uuid-5605c72e-f314-4caf-ad55-6341344bdcff" data-name="personalization__categories__dress">
      <g clip-path="url(#uuid-e5e7c011-d309-416c-be63-f360f4b1725a)">
        <path id="uuid-0e955814-9d31-4712-814f-9a84ada42d1c" data-name="IcoRobe" d="m35.67,34.39c-.02-.67-.28-3.27-1.17-4.81-.44-.84-1.01-1.46-1.08-2.16-.05-1.43.81-2.45,1.22-3.81.1-.27.19-.52.27-.76.24-.71.26-1.47.1-2.2-.08-.36-.33-.89-.33-1.15.02-1.01.21-2.88-.28-3.41-.21-.23-.62-.36-1.15-.21-1.17.32-3.88,2.36-3.88,2.36v.06s0-.06,0-.06c0,0-2.71-2.03-3.88-2.36-.53-.15-.94-.02-1.15.21-.5.53-.3,2.4-.28,3.41,0,.26-.25.79-.33,1.15-.16.73-.14,1.49.1,2.2.08.25.17.5.27.76.42,1.36,1.27,2.39,1.22,3.81-.07.7-.64,1.33-1.08,2.16-.89,1.54-1.15,4.14-1.17,4.81-.07,2.27.01,6.32,1.3,8.49.04.06,4.15.33,5.02.32.67,0,4.94-.26,4.97-.32,1.29-2.17,1.37-6.22,1.3-8.49Zm-10.69-15.15s-.58-2.25.06-2.53c.91-.4,3.48,1.95,3.48,1.95l-1.65,1.45-1.89-.87Zm4.38,2.09c-.42,0-1.03-.28-1.23-.52l1.24-1.2,1.24,1.2c-.2.24-.87.51-1.25.52Zm.86-2.67s2.57-2.35,3.48-1.95c.64.28.06,2.53.06,2.53l-1.89.87-1.65-1.45Z" fill="#ed6d7b" stroke-width="0"/>
      </g>
    </g>
  </g>
</svg>