<?xml version="1.0" encoding="UTF-8"?>
<svg id="uuid-31cbc82c-b13d-47e9-afbd-4a959513ebf8" data-name="Calque 2" xmlns="http://www.w3.org/2000/svg" width="59" height="59" xmlns:xlink="http://www.w3.org/1999/xlink" viewBox="0 0 59 59">
  <defs>
    <clipPath id="uuid-cfef63a8-9f2d-45b8-8b6e-cd7fed8ddf07">
      <rect width="59" height="59" fill="none" stroke-width="0"/>
    </clipPath>
  </defs>
  <g id="uuid-4dff1a34-4bce-4113-a702-dbd681460049" data-name="Calque 1">
    <g id="uuid-f33a7810-0001-4069-a74b-64ea920a725d" data-name="personalization__categories__earring">
      <g clip-path="url(#uuid-cfef63a8-9f2d-45b8-8b6e-cd7fed8ddf07)">
        <g id="uuid-ae7698aa-260d-44fe-9f06-38a762755076" data-name="IcoBouclesOreilles">
          <g id="uuid-848f6047-b4ec-4d84-8821-b2c582a2100c" data-name="droite">
            <path d="m35.31,31.15c-.35.49-.92.78-1.53.78-.16,0-.32-.02-.49-.06-.49-.13-.89-.44-1.15-.88-.14-.24-.21-.49-.24-.75-1.04.33-1.9,1.16-2.2,2.29-.47,1.76.57,3.56,2.33,4.03,1.76.47,3.56-.57,4.03-2.33.3-1.13-.02-2.28-.76-3.08Z" fill="#ed6d7b" stroke-width="0"/>
            <path d="m34.11,30.04c-.1,0-.21-.01-.31-.04-.45-.12-.77-.49-.87-.92-.19.16-.33.38-.4.64-.19.69.22,1.4.92,1.59.69.19,1.4-.22,1.59-.92.07-.26.06-.52-.03-.75-.23.25-.55.4-.9.4Z" fill="#ed6d7b" stroke-width="0"/>
            <path id="uuid-4500d73f-c150-400b-91ec-3ed10f97e10b" data-name="Path 5979" d="m33.51,28.66c-.09.33.11.67.44.76.33.09.67-.11.76-.44l.46-1.7c.09-.33-.11-.67-.44-.76-.33-.09-.67.11-.76.44l-.46,1.7Z" fill="#ed6d7b" stroke-width="0"/>
            <path id="uuid-d52bae3c-d932-4de5-847c-39e49ec7d1a0" data-name="Path 5980" d="m34.44,21.76c.06.36.22.7.46.98.07.09.14.19.2.29.21.33.25.74.11,1.1l-.63,2.35.3.08.63-2.35c.17-.45.12-.95-.14-1.36-.06-.1-.14-.2-.21-.29-.21-.23-.35-.52-.4-.83-.03-.34.11-.68.37-.9.27-.24.65-.34,1.01-.27.31.06.58.24.75.5.23.52.25,1.11.05,1.65l-.05.2c-.17.49-.14,1.03.09,1.5.16.25.4.43.69.51.17.07.35.07.52.02l-.04-.07c-.43.03-.83-.2-1.01-.58-.14-.42-.12-.88.04-1.29l.05-.2c.22-.62.19-1.29-.08-1.89-.21-.33-.55-.56-.94-.64-.46-.1-.93.03-1.28.34-.34.29-.52.72-.48,1.17" fill="#ed6d7b" stroke-width="0"/>
          </g>
          <g id="uuid-60d6f2d7-09b5-4abe-a192-8f1b64b183f3" data-name="gauche">
            <path d="m27.22,31.15c-.35.49-.92.78-1.53.78-.16,0-.32-.02-.49-.06-.49-.13-.89-.44-1.15-.88-.14-.24-.21-.49-.24-.75-1.04.33-1.9,1.16-2.2,2.29-.47,1.76.57,3.56,2.33,4.03,1.76.47,3.56-.57,4.03-2.33.3-1.13-.02-2.28-.76-3.08Z" fill="#ed6d7b" stroke-width="0"/>
            <path d="m26.02,30.04c-.1,0-.21-.01-.31-.04-.45-.12-.77-.49-.87-.92-.19.16-.33.38-.4.64-.19.69.22,1.4.92,1.59.69.19,1.4-.22,1.59-.92.07-.26.06-.52-.03-.75-.23.25-.55.4-.9.4Z" fill="#ed6d7b" stroke-width="0"/>
            <path id="uuid-63c5154a-eca1-41e8-b87d-03f1477cf059" data-name="Path 5979" d="m25.42,28.66c-.09.33.11.67.44.76.33.09.67-.11.76-.44l.46-1.7c.09-.33-.11-.67-.44-.76-.33-.09-.67.11-.76.44l-.46,1.7Z" fill="#ed6d7b" stroke-width="0"/>
            <path id="uuid-08e9976a-953e-49d1-8857-dc6c3cc9527a" data-name="Path 5980" d="m26.35,21.76c.06.36.22.7.46.98.07.09.14.19.2.29.21.33.25.74.11,1.1l-.63,2.35.3.08.63-2.35c.17-.45.12-.95-.14-1.36-.06-.1-.14-.2-.21-.29-.21-.23-.35-.52-.4-.83-.03-.34.11-.68.37-.9.27-.24.65-.34,1.01-.27.31.06.58.24.75.5.23.52.25,1.11.05,1.65l-.05.2c-.17.49-.14,1.03.09,1.5.16.25.4.43.69.51.17.07.35.07.52.02l-.04-.07c-.43.03-.83-.2-1.01-.58-.14-.42-.12-.88.04-1.29l.05-.2c.22-.62.19-1.29-.08-1.89-.21-.33-.55-.56-.94-.64-.46-.1-.93.03-1.28.34-.34.29-.52.72-.48,1.17" fill="#ed6d7b" stroke-width="0"/>
          </g>
        </g>
      </g>
    </g>
  </g>
</svg>