<?xml version="1.0" encoding="UTF-8"?>
<svg id="uuid-39efcc64-b8a6-43c4-85fe-5031cbe69f7a" data-name="Calque 2" xmlns="http://www.w3.org/2000/svg" width="59" height="59" xmlns:xlink="http://www.w3.org/1999/xlink" viewBox="0 0 59 59">
  <defs>
    <clipPath id="uuid-cc69e9f0-dde8-4103-a331-0a0f2cef1c5e">
      <rect width="59" height="59" fill="none" stroke-width="0"/>
    </clipPath>
  </defs>
  <g id="uuid-ebd24da0-6892-4047-84a9-e5647fe6d8b0" data-name="Calque 1">
    <g id="uuid-1f65ddf4-47b2-4f92-be29-bfed586c869e" data-name="personalization__categories__expression">
      <g clip-path="url(#uuid-cc69e9f0-dde8-4103-a331-0a0f2cef1c5e)">
        <path id="uuid-e0103fdd-d2a6-4ba3-a201-8b1398533939" data-name="IcoEmotion" d="m39.67,25.39c-.19-.47-.42-.93-.68-1.36-.42-.73-.92-1.41-1.49-2.03-.1-.11-.2-.21-.29-.3-.3-.3-.61-.58-.94-.84-.04-.02-.08-.05-.12-.08,0,.04-.02.08-.04.12,0-.05.02-.09.04-.14-1.14-.85-2.43-1.47-3.8-1.83-2.8-.79-5.81-.39-8.32,1.09-5.23,3.01-7.04,9.69-4.03,14.92,1.45,2.53,3.85,4.37,6.66,5.12,2.8.81,5.82.41,8.32-1.09,4.71-2.74,6.7-8.52,4.69-13.58m-11.54.38c0,1-.81,1.82-1.81,1.82s-1.82-.81-1.82-1.81c0-1,.81-1.82,1.81-1.82.48,0,.94.19,1.29.53.35.34.54.8.53,1.28m7.58,3.6c-.71.71-1.85.7-2.56,0-.71-.71-.7-1.85,0-2.56.71-.71,1.85-.7,2.56,0,.34.34.53.8.53,1.28,0,.48-.18.95-.53,1.28m-10.77,4.23c-.34-.59-.56-1.24-.64-1.92v-.05c-.02-.09-.02-.17,0-.26.04-.11.11-.2.2-.26,1.81.3,3.6.73,5.35,1.28,1.34.35,2.3.61,2.89.78.07.02.15.04.22.07.11.03.22.07.33.11.2.07.25.23.15.46-.01.09-.05.17-.1.24,0,0-.01.02-.01.03-.44.54-.97,1-1.58,1.34-1.11.69-2.44.9-3.71.6l-.11-.05s-.03,0-.04-.01c-1.26-.35-2.32-1.2-2.94-2.35Z" fill="#ed6d7b" stroke-width="0"/>
      </g>
    </g>
  </g>
</svg>