<?xml version="1.0" encoding="UTF-8"?>
<svg id="uuid-bd559da7-679f-4c34-9fb3-6605b02f80b5" data-name="Calque 2" xmlns="http://www.w3.org/2000/svg" width="59" height="59" xmlns:xlink="http://www.w3.org/1999/xlink" viewBox="0 0 59 59">
  <defs>
    <clipPath id="uuid-938c24bc-1fe3-43c0-a59b-9cedc0eeda12">
      <rect width="59" height="59" fill="none" stroke-width="0"/>
    </clipPath>
  </defs>
  <g id="uuid-ad3b72da-562a-4a18-b90f-4c7a06b6dc21" data-name="Calque 1">
    <g id="uuid-5429c7f2-d80f-4ddf-b799-b25f5009d634" data-name="personalization__categories__eyebrow">
      <g clip-path="url(#uuid-938c24bc-1fe3-43c0-a59b-9cedc0eeda12)">
        <g id="uuid-918df413-2ece-4e2c-b7c0-74b7c8f09ca6" data-name="IcoSourcil">
          <path id="uuid-f19f4aa5-59d1-4b8a-82ee-a7f2fe08a11b" data-name="Sourcils" d="m18.27,24.4s.8-1,2.24-1.66c4.13-1.88,5.46-.68,7.71.37,4.22,1.97,11.47,4.13,12.18,4.27,1.09.22-.26-2.42-1.74-3.84-1.56-1.5-3.88-2.55-6.2-3.3-3.79-1.23-7.38-2.22-10.68-.17-.45.28-.88.62-1.28,1.03-.58.58-1.15,1.2-1.55,1.95-.43.79-.41.76-.67,1.35Z" fill="#ed6d7b" stroke-width="0"/>
          <path id="uuid-e3b9bd3c-9c25-4dc8-b8f4-686af7848236" data-name="Tracé 4940" d="m37.54,39.01c-1.52-.61-1.58-.84-.18-.71.1-.3.05-.5-.15-.58-2.21.47-4.47.66-6.73.56-1.82-.09-3.62-.46-5.34-1.08-.69-.25-1.36-.55-2.01-.9-2.09-.18-3.25-.1-3.47.25,2.12-.21,3.46-.11,4.03.28-.89-.03-1.77.25-2.48.79,1.02-.13,2.05-.18,3.08-.17-.33.21-.62.48-.86.79,2.09-.24,3.32-.32,3.67-.24-1.1.74-1.6,1.22-1.5,1.44.34-.37,1.21-.73,2.59-1.08,1.93.3,3.89.4,5.84.3.46.44,1.04.74,1.66.88-.29-.38-.63-.73-1.01-1.03.25.02.5.01.74,0,.66.32,1.38.49,2.12.49m.89-2.15c.33.3.53.3.59,0-3.24-8.33-9.13-10.24-17.68-5.73-.94.33-1.98.15-3.11-.54.64.68,1.42,1.22,2.29,1.57-1.41.17-2.48.07-3.22-.31-.25-.13-.54-.28-.87-.45-.11.26,1.53,1.41,4.91,3.44.44.34.89.66,1.35.95-1.43-1.09-1.05-2.2,1.13-3.31.65-.33,1.33-.61,2.02-.85,2.92-1.05,5.44-1.01,7.54.12.73.39,1.39.9,1.97,1.49,1.7,1.54,2.73,2.74,3.07,3.62m-7.95,1.42c1-.29,1.83-.97,2.32-1.88,1.05-1.32,1.25-2.87.6-4.65-2.1-1.13-4.62-1.17-7.54-.12-.69.24-1.37.52-2.02.85-.24.78-.24,1.61,0,2.39.2.89.65,1.7,1.3,2.33,1.72.62,3.52.98,5.34,1.08m-1.89-6.19c.29.22.47.56.49.92,0,.32-.25.6-.76.86-.51.25-.97.49-1.38.7-.37.22-.85.15-1.14-.17-.34-.3-.48-.75-.38-1.19.09-.46.35-.86.73-1.12.37-.28.82-.43,1.28-.43.43-.01.85.15,1.17.44h0Z" fill="#ed6d7b" opacity=".5" stroke-width="0"/>
        </g>
      </g>
    </g>
  </g>
</svg>