<?xml version="1.0" encoding="UTF-8"?>
<svg id="uuid-e19390ed-068c-4ab4-b3ec-1a04d2d9fca0" data-name="Calque 2" xmlns="http://www.w3.org/2000/svg" width="59" height="59" xmlns:xlink="http://www.w3.org/1999/xlink" viewBox="0 0 59 59">
  <defs>
    <clipPath id="uuid-4ca9091b-82db-4fda-962d-e3c4986ab5b2">
      <rect width="59" height="59" fill="none" stroke-width="0"/>
    </clipPath>
  </defs>
  <g id="uuid-52188ef3-ca09-4fb4-b809-f50dbc4c736c" data-name="Calque 1">
    <g id="uuid-5c852f02-a19f-492e-bf5a-d2a0d4893f44" data-name="personalization__categories__eye">
      <g clip-path="url(#uuid-4ca9091b-82db-4fda-962d-e3c4986ab5b2)">
        <path id="uuid-1fee93ac-aa71-4f18-9680-a7de3d5eee8a" data-name="Tracé 4940" d="m40.09,35.07c-1.76-.71-1.83-.98-.21-.82.12-.35.06-.57-.18-.67-2.56.55-5.18.77-7.8.65-2.11-.11-4.2-.53-6.19-1.25-.8-.29-1.58-.64-2.33-1.04-2.42-.21-3.77-.11-4.03.29,2.46-.24,4.01-.13,4.67.32-1.04-.03-2.05.29-2.88.92,1.19-.15,2.38-.21,3.58-.19-.38.24-.72.55-1,.91,2.42-.28,3.84-.37,4.26-.27-1.27.86-1.85,1.42-1.74,1.67.4-.43,1.4-.85,3-1.25,2.24.34,4.51.46,6.77.35.54.51,1.2.86,1.93,1.02-.34-.45-.73-.85-1.17-1.2.29.02.58.02.86,0,.76.37,1.6.57,2.45.57m1.03-2.49c.38.35.61.35.68,0-3.75-9.66-10.58-11.87-20.5-6.65-1.09.38-2.3.18-3.6-.62.74.79,1.65,1.41,2.65,1.82-1.63.2-2.88.08-3.74-.36-.29-.15-.62-.32-1-.52-.12.31,1.78,1.63,5.7,3.99.51.4,1.03.76,1.57,1.1-1.66-1.27-1.22-2.55,1.31-3.83.76-.38,1.54-.71,2.34-.99,3.39-1.22,6.3-1.17,8.74.13.84.46,1.61,1.04,2.28,1.73,1.98,1.78,3.16,3.18,3.55,4.2m-9.22,1.65c1.15-.34,2.12-1.12,2.69-2.18,1.22-1.53,1.45-3.33.69-5.39-2.44-1.31-5.35-1.35-8.74-.13-.8.28-1.58.61-2.34.99-.28.9-.28,1.87,0,2.77.23,1.03.75,1.97,1.51,2.7,1.99.72,4.08,1.14,6.19,1.25m-2.19-7.17c.33.26.54.65.57,1.07,0,.37-.29.7-.88.99-.59.29-1.12.56-1.6.81-.43.26-.99.17-1.33-.2-.39-.35-.56-.87-.44-1.38.1-.53.4-.99.85-1.3.43-.32.95-.5,1.48-.5.5-.01.99.17,1.36.5h0Z" fill="#ed6d7b" stroke-width="0"/>
      </g>
    </g>
  </g>
</svg>