<?xml version="1.0" encoding="UTF-8"?>
<svg id="uuid-9e618968-6308-48ab-8d49-980df3da8ed6" data-name="Calque 2" xmlns="http://www.w3.org/2000/svg" width="59" height="59" xmlns:xlink="http://www.w3.org/1999/xlink" viewBox="0 0 59 59">
  <defs>
    <clipPath id="uuid-875a9385-72b4-4000-a355-a959058f038a">
      <rect width="59" height="59" fill="none" stroke-width="0"/>
    </clipPath>
  </defs>
  <g id="uuid-f51d44b0-0537-4494-b824-d233f2debbfb" data-name="Calque 1">
    <g id="uuid-bc47f4f9-03f4-4eb1-969c-11c4aef5bfff" data-name="personalization__categories__faceAccessory">
      <g clip-path="url(#uuid-875a9385-72b4-4000-a355-a959058f038a)">
        <path id="uuid-e02634a2-2208-412c-8e4f-039bb4b198eb" data-name="IcoAccessoirevisage" d="m43.03,26.55c-.17-.59-.68-1.01-1.29-1.05-1.15-.12-2.3-.18-3.45-.18-3.68,0-6.24.52-7.83,1.6h-1.76c-1.58-1.08-4.14-1.6-7.81-1.6-1.15,0-2.3.06-3.45.18-.61.04-1.13.46-1.29,1.05v3.04s.35.07.35.07c.11.03.2.11.26.21.09.18.16.37.23.55.22.67.55,1.3.99,1.85,1.25,1.37,3,2.18,4.86,2.24,4.89,0,5.83-3.69,6.18-5.08.03-.11.05-.2.07-.27.15-.12.33-.2.52-.24.19.04.36.13.52.24.02.07.04.17.07.27.35,1.39,1.28,5.08,6.18,5.08h0c1.85-.07,3.6-.88,4.85-2.24.43-.56.77-1.18.99-1.85.07-.19.14-.37.23-.55.06-.1.15-.18.26-.21l.35-.07v-3.04Zm-10.86,1.29c1.95-.77,4.04-1.09,6.12-.96,1.49,0,1.94.48,2.05.62.6,1.23.47,2.68-.32,3.79-.96,1.01-2.28,1.62-3.67,1.69-1.31.08-2.58-.39-3.53-1.3-.79-.89-1.25-2.03-1.3-3.23.01-.21.38-.49.65-.62m-9.33,5.14c-1.4-.07-2.72-.67-3.68-1.69-.79-1.11-.91-2.57-.31-3.8.1-.15.56-.62,2.05-.62,2.09-.13,4.18.2,6.13.97.21.1.62.39.64.61-.05,1.19-.51,2.34-1.3,3.23-.94.9-2.22,1.37-3.52,1.3" fill="#ed6d7b" stroke-width="0"/>
      </g>
    </g>
  </g>
</svg>