<?xml version="1.0" encoding="UTF-8"?>
<svg id="uuid-9f6be899-bd8d-4f98-a1e2-2ec66649904f" data-name="Calque 2" xmlns="http://www.w3.org/2000/svg" width="59" height="59" xmlns:xlink="http://www.w3.org/1999/xlink" viewBox="0 0 59 59">
  <defs>
    <clipPath id="uuid-81572fbf-4175-4cf8-abf2-23435370e65f">
      <rect width="59" height="59" fill="none" stroke-width="0"/>
    </clipPath>
  </defs>
  <g id="uuid-3cdd6281-0222-4541-a6bc-0d1ab2ad4081" data-name="Calque 1">
    <g id="uuid-60625cae-df34-4627-8f28-f5450f4e77cd" data-name="personalization__categories__gloves">
      <g clip-path="url(#uuid-81572fbf-4175-4cf8-abf2-23435370e65f)">
        <g id="uuid-545f4c37-3cd2-47cc-b5fe-221db187df87" data-name="IcoGants">
          <path id="uuid-3bd4c1a1-c231-46a9-a348-dbb61c1e1fc8" data-name="Union 14" d="m19.84,34.05l-2.84-2.51,1.36-1.53c.44-.5.66-1.15.62-1.81l-.37-6.12c-.03-.53.37-.99.9-1.02,0,0,.02,0,.03,0,.53,0,.97.42.99.94l.75,3.14c.08.35.43.57.78.48.13-.03.25-.1.34-.2l5.4-6.11c.35-.4.95-.44,1.35-.09,0,0,.02.02.03.02.38.37.39.98.04,1.37l-3.75,4.25c-.15.17-.15.42,0,.59h0c.16.2.45.22.64.06.02-.01.03-.03.05-.05l4.79-5.41c.35-.4.95-.43,1.35-.08,0,0,0,0,0,0h.01c.39.36.43.96.08,1.36l-5.15,5.83c-.15.17-.15.42,0,.59h0c.16.2.44.23.64.07.02-.02.04-.03.05-.05l3.98-4.51c.35-.4.96-.43,1.36-.08,0,0,.01.01.02.02.38.37.39.98.04,1.37l-4.26,4.82c-.13.15-.14.37-.01.53h0c.14.18.4.21.57.06.02-.01.03-.03.05-.04l3.33-3.77c.35-.41.95-.46,1.37-.13.41.34.46.95.12,1.36,0,0-.01.01-.02.02l-9.72,11-4.92-4.35Z" fill="#ed6d7b" opacity=".3" stroke-width="0"/>
          <path id="uuid-91fb24af-3ce1-48d9-9449-dad38cf7b57f" data-name="Union 13" d="m24.83,34.05l-1.58-3.45,1.86-.85c.6-.28,1.07-.78,1.31-1.4l2.15-5.74c.19-.5.74-.75,1.24-.56,0,0,.02,0,.03.01.48.21.71.77.52,1.26l-.6,3.17c-.07.35.17.69.52.76.13.02.27,0,.39-.05l7.42-3.39c.48-.22,1.05-.01,1.27.47,0,.01,0,.02.01.03.19.49-.04,1.05-.52,1.27l-5.15,2.35c-.2.09-.31.32-.25.54h0c.07.25.32.39.56.32.02,0,.04-.01.06-.02l6.57-3c.48-.22,1.04,0,1.26.47,0,0,0,0,0,0v.02c.22.48.01,1.04-.46,1.26l-7.07,3.23c-.2.09-.31.32-.25.54h0c.07.25.32.39.56.32.02,0,.05-.02.07-.03l5.47-2.51c.49-.22,1.06,0,1.28.48,0,0,0,.02.01.02.19.49-.04,1.05-.52,1.26l-5.85,2.67c-.18.08-.28.29-.22.48h0c.06.23.29.35.5.29.02,0,.04-.01.06-.02l4.58-2.09c.48-.23,1.06-.04,1.3.43.24.48.04,1.05-.44,1.29,0,0-.02,0-.03.01l-13.35,6.1-2.73-5.97Z" fill="#ed6d7b" stroke-width="0"/>
        </g>
      </g>
    </g>
  </g>
</svg>