<?xml version="1.0" encoding="UTF-8"?>
<svg id="uuid-a6796ecf-1dc7-450f-affe-61137d6dd9bb" data-name="Calque 2" xmlns="http://www.w3.org/2000/svg" width="59" height="59" xmlns:xlink="http://www.w3.org/1999/xlink" viewBox="0 0 59 59">
  <defs>
    <clipPath id="uuid-ba522151-543f-4ff8-8723-573b46a163b2">
      <rect width="59" height="59" fill="none" stroke-width="0"/>
    </clipPath>
  </defs>
  <g id="uuid-a711923a-d7a7-47c0-9e8f-f5c4b5b4cda4" data-name="Calque 1">
    <g id="uuid-32ab8953-2831-4b7b-acdd-4d708e3cf766" data-name="personalization__categories__hat">
      <g clip-path="url(#uuid-ba522151-543f-4ff8-8723-573b46a163b2)">
        <path id="uuid-9c2379fe-0874-4dad-99ae-dfd7983b521c" data-name="IcoChapeau" d="m27.7,37.29c-2.01.56-4.13.66-6.19.31-1.45-.24-2.87-.6-4.26-1.08-2.44-1.33-1.6-2.28.65-3.83,1.3-.89,2.52-1.92,3.85-2.78,1.15-.75,1.56-1.14.96-3.76-1.1-4.79,3.24-8.29,8.07-7.25,2.21.48,3.42,2.01,4.24,3.92,1.28,2.96,1.44,2.43,2.87,2.19,1.77-.26,3.57-.38,5.36-.38,1.1,0,2.29.14,2.44.73,1.09,4.22-1.98,4.46-3.45,4.83-5.42,1.35-5.67,2.07-8.17,3.76-1.89,1.5-4.05,2.63-6.36,3.33m-4.43-8.65c.03.55-.52.77-.45.84.36.15.72.27,1.1.37,4.69.51,8.84-.03,12.17-3.42.41-.42.5-.59.38-1.07l-.34-.3c-3.62,3.46-10.32,4.08-12.85,3.59" fill="#ed6d7b" stroke-width="0"/>
      </g>
    </g>
  </g>
</svg>