<?xml version="1.0" encoding="UTF-8"?>
<svg id="uuid-11ce39b4-96ea-46b0-8457-b6ab83b93dcc" data-name="Calque 2" xmlns="http://www.w3.org/2000/svg" width="59" height="59" xmlns:xlink="http://www.w3.org/1999/xlink" viewBox="0 0 59 59">
  <defs>
    <clipPath id="uuid-51d25a08-c664-4eac-8e0d-971b496687e6">
      <rect width="59" height="59" fill="none" stroke-width="0"/>
    </clipPath>
  </defs>
  <g id="uuid-007b0406-e2df-46eb-9fd8-04bdaa6565cc" data-name="Calque 1">
    <g id="uuid-ca5b8992-e18a-45ef-a176-37cae7feb617" data-name="personalization__categories__footAccessory">
      <g clip-path="url(#uuid-51d25a08-c664-4eac-8e0d-971b496687e6)">
        <g id="uuid-d48f0311-af9c-43aa-8ded-3cdc2740fe54" data-name="IcoBijouPieds">
          <path d="m28.59,26.61c.05,0,.1.02.15.04.06.02.83.25,2-.21-.92-.18-1.68-.42-2.11-.57-.01.25-.02.5-.04.75Z" fill="#ed6d7b" stroke-width="0"/>
          <path d="m33.81,27.67h0c0,.47.38.85.85.85h0c.47,0,.85-.38.85-.85,0-.23-.09-.44-.25-.6-.16-.16-.37-.25-.6-.25-.47,0-.85.38-.85.84Z" fill="#ed6d7b" stroke-width="0"/>
          <path d="m42.16,27.55h0c-.22-.95-.75-1.81-1.51-2.43-.32-.26-1.14-1.49-1.56-1.99-.39.63-1.09,1.46-2.35,2.47-.03.03-.07.05-.1.07,0,0,.01.01.02.02.53.53.82,1.24.82,1.99,0,1.55-1.26,2.81-2.81,2.81h0c-1.41,0-2.58-1.05-2.78-2.41-.99.47-1.87.6-2.53.6-.39,0-.71-.05-.93-.09,0,.06-.01.13-.01.19l-.22,1.71c-.1.41-.16.83-.3,1.22-.43,1.35-.7,2.75-.79,4.17-.04.53-.16.87-.74,1.03-.53.18-1.03.42-1.5.72-.29.17-.54.39-.75.66-.1.16-.26.26-.44.3-.57.11-1.05.49-1.3,1.01-.11.29-.17.6-.18.91-.75.08-1.46.24-1.66,1.19-.18.61.08,1.27.63,1.6.24.13.49.21.76.26.4.08.82.09,1.23.16l.41-.04c.71-.27,1.41-.59,2.14-.8.46-.07.92-.1,1.38-.08,1.24.02,2.42-.55,3.19-1.53.29-.47.54-.96.76-1.46.51-1.02,1.02-2.04,1.55-3.04.14-.22.31-.42.5-.59.65-.66,1.29-1.34,1.98-1.97.29-.24.63-.41,1-.51,1.2-.35,2.35-.85,3.43-1.49.87-.53,1.62-1.22,2.21-2.04.14-.23.25-.48.33-.73.07-.18.12-.37.18-.56v-1.26s-.03-.05-.04-.08Z" fill="#ed6d7b" stroke-width="0"/>
          <path d="m38.24,21.6c-.1-.23-.18-.47-.27-.7-.29.52-.73,1.3-1.28,2.16.76-.67,1.29-1.19,1.55-1.46Z" fill="#ed6d7b" stroke-width="0"/>
          <path d="m28.64,21.26c.04.86.05,1.72.05,2.58.11,0,.22.02.32.06.78.3,2.48.79,4.04.8,1.46-1.66,2.96-4.27,3.52-5.35.16-.32.47-.5.8-.53-.04-.16-.08-.32-.11-.48-.17-.82-.27-1.66-.43-2.49-.02-.12-.13-.3-.22-.33-.48-.14-.98-.22-1.48-.25-2.14-.03-4.29-.01-6.43,0-.15,0-.29.05-.41.13-.38.24-.55.71-.39,1.13.37,1.55.62,3.12.75,4.71Z" fill="#ed6d7b" stroke-width="0"/>
        </g>
      </g>
    </g>
  </g>
</svg>