<?xml version="1.0" encoding="UTF-8"?>
<svg id="uuid-bb7141f1-48dc-48f4-a62f-bb7e7c580993" data-name="Calque 2" xmlns="http://www.w3.org/2000/svg" width="59" height="59" xmlns:xlink="http://www.w3.org/1999/xlink" viewBox="0 0 59 59">
  <defs>
    <clipPath id="uuid-af7a497a-1063-4e10-bc1a-52093504987f">
      <rect width="59" height="59" fill="none" stroke-width="0"/>
    </clipPath>
  </defs>
  <g id="uuid-e792eac9-a923-4a90-ace5-8ab2caef6bf3" data-name="Calque 1">
    <g id="uuid-2b04422d-ad1c-4ef4-9ea9-b5333d304d8d" data-name="personalization__categories__nailPolish">
      <g clip-path="url(#uuid-af7a497a-1063-4e10-bc1a-52093504987f)">
        <g id="uuid-8a1ca505-8ee5-4c9b-803f-79f572892ca2" data-name="IcoMaquillage">
          <g id="uuid-eaa969e1-c4e1-41af-83bf-60de60748e18" data-name="Group 3166">
            <g>
              <path d="m28.21,21.03c-4.43-1.43-9.17.99-10.62,5.41-1.02,3.15-.09,6.46,2.13,8.63l-3.52-1.14c-.52-.17-1.07.11-1.24.63-.5,1.55.34,3.22,1.9,3.72l10.62,3.45c1.55.5,3.22-.34,3.72-1.9.17-.52-.11-1.07-.63-1.24l-3.74-1.21c3.07-.45,5.77-2.58,6.8-5.73,1.43-4.42-.99-9.17-5.41-10.62Zm4.62,10.36c-1.21,3.72-5.02,5.87-8.76,5.09l-1.59-.52c-3.49-1.57-5.3-5.55-4.1-9.27,1.3-3.99,5.58-6.17,9.57-4.88,2.19.71,3.83,2.33,4.65,4.3l-6.35,3.26c-.24.12-.33.42-.21.65.09.17.26.26.43.26.07,0,.15-.02.22-.05l6.23-3.2c.38,1.38.38,2.89-.1,4.35Z" fill="#ed6d7b" stroke-width="0"/>
              <path d="m29.09,25.49c-.12-.24-.42-.33-.65-.21l-5.96,3.03c-.24.12-.33.41-.21.65.09.17.26.27.43.27.07,0,.15-.02.22-.05l5.96-3.03c.24-.12.33-.41.21-.65Z" fill="#ed6d7b" stroke-width="0"/>
            </g>
            <g id="uuid-a3a089fe-3624-4d01-834e-2719388262a1" data-name="Group 3165">
              <path id="uuid-cc18adf0-9d65-47fb-8015-9f719eeb85c5" data-name="Path 6003" d="m34.26,25.78l5.17-2.41,1.5,3.28-5.17,2.41-1.5-3.28Z" fill="#ed6d7b" stroke-width="0"/>
              <path id="uuid-648595b9-a7c3-44ce-acce-4be1416ec8ef" data-name="Path 6004" d="m42.35,26.85c.9,2.03,1.51,4.16,1.84,6.36l-5.51,2.57c-1.47-1.66-2.71-3.5-3.69-5.49l7.36-3.43Z" fill="#ed6d7b" stroke-width="0"/>
              <path id="uuid-bfcfd493-91c9-46a7-ad04-06cda2e15445" data-name="Path 6005" d="m35.95,17.12l-2.66,5.1,1.3,2.79,4.14-1.93-2.78-5.97Z" fill="#ed6d7b" stroke-width="0"/>
            </g>
          </g>
        </g>
      </g>
    </g>
  </g>
</svg>