<?xml version="1.0" encoding="UTF-8"?>
<svg id="uuid-20c61e4b-ecec-4155-81c8-596ce451df46" data-name="Calque 2" xmlns="http://www.w3.org/2000/svg" width="59" height="59" xmlns:xlink="http://www.w3.org/1999/xlink" viewBox="0 0 59 59">
  <defs>
    <clipPath id="uuid-8ae2ab90-9a94-49ef-99e6-55f5189d0313">
      <rect width="59" height="59" fill="none" stroke-width="0"/>
    </clipPath>
  </defs>
  <g id="uuid-851849ab-206e-402a-ae7c-7ce139d1088c" data-name="Calque 1">
    <g id="uuid-c478a4df-3874-4284-8507-6ff5d963157f" data-name="personalization__categories__mouth">
      <g clip-path="url(#uuid-8ae2ab90-9a94-49ef-99e6-55f5189d0313)">
        <g id="uuid-3b043f1a-31c6-4f1d-942f-c235c52d9463" data-name="IcoBouche">
          <path id="uuid-16bf572b-9b06-442d-b39a-c08a453de4f5" data-name="haut" d="m41.69,29.89h0c-.68.17-1.32.24-1.94.26h-.01c-1.98.05-3.72-.55-5.56-1.09-.05-.02-3.15-1.39-4.66-1.45-1.54-.06-2.79.85-4.24,1.25h0c-1.83.51-3.62,1.13-5.44,1.29h0c-.83.07-1.68.05-2.53-.14-.34-.07-.34-.38-.03-.47.63-.19,1.64-.7,2.13-1.12,1.81-1.57,2.25-4.28,6.34-6.1.41-.18,1.22-.12,1.6.12.65.42,1.54,1.08,1.55,1.1.41.32.96.38,1.42.16.07-.03,1.28-.84,1.81-1.12.38-.2.83-.2,1.22-.02,3.63,1.71,4.31,4.53,6.47,5.88.28.18,1.48.82,1.79.92.4.13.48.45.09.54Z" fill="#ed6d7b" stroke-width="0"/>
          <path d="m34.18,30.25c-.05-.02-.11-.04-.16-.05-.04-.01-.08-.02-.13-.04-.99-.25-2.81.97-4.32.97s-3.29-1.38-4.29-1.08h0c-2.67.74-5.26,1.74-7.96,1.15,7.2,4.99,8.51,5.48,12.12,5.59,3.5.11,6.14-.57,12.25-5.7-2.85.69-5.1-.11-7.51-.83Zm-1.49,4.07c-.92.09-1.7-.13-1.73-.47-.03-.35.69-.7,1.62-.78.92-.09,1.7.13,1.73.47.03.35-.69.7-1.62.78Z" fill="#ed6d7b" stroke-width="0"/>
        </g>
      </g>
    </g>
  </g>
</svg>