<?xml version="1.0" encoding="UTF-8"?>
<svg id="uuid-2bec3606-5dcd-4293-a893-f2a04d850441" data-name="Calque 2" xmlns="http://www.w3.org/2000/svg" width="59" height="59" xmlns:xlink="http://www.w3.org/1999/xlink" viewBox="0 0 59 59">
  <defs>
    <clipPath id="uuid-cb3000b6-6d19-4465-af0a-7c817c195e90">
      <rect width="59" height="59" fill="none" stroke-width="0"/>
    </clipPath>
  </defs>
  <g id="uuid-312493a6-d8ce-4863-8bd1-0e584d1d3526" data-name="Calque 1">
    <g id="uuid-edc359f4-5bbb-40d3-89dd-bb91da700983" data-name="personalization__categories__neckAccessory">
      <g clip-path="url(#uuid-cb3000b6-6d19-4465-af0a-7c817c195e90)">
        <path id="uuid-3d5eb841-9f80-453f-9cec-a2a635c26397" data-name="IcoCollier" d="m36.12,32.06l-.22-1.69c0-.05-.01-.1-.02-.15,0-.04-.02-.07-.02-.1,3.7-3.81,2.49-9.11.34-11.66-.33-.38-.9-.43-1.29-.11-.4.32-.46.91-.13,1.32,2.2,2.61,2.13,6.49-.15,9.03-2.54,2.82-6.9,3.05-9.72.51-1.37-1.23-2.17-2.92-2.27-4.75-.1-1.84.53-3.6,1.76-4.97.34-.38.31-.97-.07-1.32-.18-.17-.42-.25-.67-.24-.25.01-.48.12-.64.31-1.45,1.61-2.24,3.68-2.24,5.85,0,2.5,1.06,4.76,2.74,6.35-.01.03-.03.07-.04.1l-.28,1.65c-.78.31-1.39,1.01-1.55,1.91-.23,1.37.69,2.67,2.05,2.9h0c1.36.23,2.66-.69,2.9-2.05.15-.89-.19-1.75-.82-2.31l.1-.59c.77.35,1.6.6,2.48.72-.08.16-.14.33-.15.51v1.32c-1.1.17-1.93,1.13-1.92,2.26,0,1.51,1.23,2.74,2.33,3.84.24.24.58.38.92.38,0,0,.01,0,.02,0,.04,0,.08,0,.12,0,.3-.03.57-.16.8-.37,1.09-1.09,2.33-2.32,2.33-3.83,0-.61-.23-1.18-.65-1.61-.36-.36-.81-.58-1.32-.65v-1.32c-.02-.19-.07-.36-.16-.52.97-.13,1.91-.42,2.79-.86l.07.52c-.65.53-1.03,1.38-.91,2.28.18,1.37,1.45,2.34,2.82,2.16h0c1.37-.18,2.34-1.45,2.16-2.82-.12-.9-.7-1.62-1.47-1.96Zm-10.87,2.61c-.11.61-.69,1.02-1.3.92-.61-.11-1.02-.69-.92-1.3.11-.61.69-1.02,1.3-.92.61.11,1.02.69.92,1.3Zm6.34,2.26h0c0,1.02-.95,1.97-1.87,2.89-.06.06-.14.09-.22.09h0c-.08,0-.16-.03-.22-.09-.92-.92-1.87-1.87-1.87-2.88,0-.66.52-1.2,1.17-1.2.35,0,.69.16.91.43.23-.27.56-.42.91-.43.66,0,1.19.54,1.18,1.2Zm3.71-1.51c-.62.08-1.18-.35-1.26-.97-.08-.62.35-1.18.97-1.26.62-.08,1.18.35,1.26.97s-.35,1.18-.97,1.26Z" fill="#ed6d7b" stroke-width="0"/>
      </g>
    </g>
  </g>
</svg>