<?xml version="1.0" encoding="UTF-8"?>
<svg id="uuid-5c6af52c-da15-40ce-803a-b81a2741845e" data-name="Calque 2" xmlns="http://www.w3.org/2000/svg" width="59" height="59" xmlns:xlink="http://www.w3.org/1999/xlink" viewBox="0 0 59 59">
  <defs>
    <clipPath id="uuid-f47a1cb9-a9a3-44ae-8168-7c5dfcdd7462">
      <rect width="59" height="59" fill="none" stroke-width="0"/>
    </clipPath>
  </defs>
  <g id="uuid-8287514e-384a-4864-85d6-f0d8e8ea6624" data-name="Calque 1">
    <g id="uuid-1961bb78-9391-4d41-9c11-d4cb8b9c7c8a" data-name="personalization__categories__armAccessory">
      <g clip-path="url(#uuid-f47a1cb9-a9a3-44ae-8168-7c5dfcdd7462)">
        <g id="uuid-e6fc6f6d-fedd-489b-8adb-da7ea7f25bb6" data-name="IcoGrosaccessoire">
          <path id="uuid-b800eebf-63c4-40b2-8125-a247910b6463" data-name="Path 6197" d="m31.48,20.86h-.89c-.14.01-.28-.02-.4-.1v-1.38c0-.2.4-.3.59-.3.1,0,.2,0,.2-.1h0c.08-.08.11-.19.1-.3,0-.1-.1-.2-.1-.4l-.1-.1c-.29-.2-.64-.3-.99-.3h0c-.35,0-.69.11-.99.3l-.1.1h0c-.1.1-.1.2-.1.4-.01.11.02.22.1.3h0c.07.01.14.05.2.1.2,0,.59.1.59.3v1.38c0,.2-.1.2-.2.2h-.69c-.1,0-.1-.1-.2,0-.05,0-.1.04-.1.1h0v.1c.01.07.05.14.1.2.15.08.32.11.49.1.2.02.41-.02.59-.1.18-.19.48-.2.67-.02,0,0,.01.01.02.02h0c.2,0,.4.1.59.1.17.02.34-.02.49-.1.1,0,.1-.1.1-.2.08-.06.1-.18.04-.26-.01-.01-.02-.03-.04-.04.1.1.1,0,0,0Z" fill="#ed6d7b" stroke-width="0"/>
          <path id="uuid-2e31a8a2-33e3-4901-b6ac-ab90543c9658" data-name="Path 6198" d="m31.98,17.4c-.34.2-.47.63-.3.99.2.3.6.38.89.18.29-.19.38-.58.19-.88-.16-.28-.49-.4-.79-.3Z" fill="#ed6d7b" stroke-width="0"/>
          <path id="uuid-0016b558-6d1b-4c0a-b9bd-69f495646dec" data-name="Path 6199" d="m27.83,17.4c-.28-.09-.59-.01-.79.2-.19.3-.09.7.21.89.3.18.68.1.88-.19.18-.28.1-.65-.18-.83-.04-.02-.07-.04-.11-.06Z" fill="#ed6d7b" stroke-width="0"/>
          <path id="uuid-f98a56b1-df76-4865-9b0f-5c82eb7d6c68" data-name="Path 6200" d="m46.3,34.5c-.08-.18-.22-.32-.4-.4-.09-.42-.46-.71-.89-.69-.23-.3-.63-.42-.99-.3-.2-.2-.4-.3-.59-.2-.58.19-1.07.57-1.38,1.09l-.3-.1c-1.19-.69-2.27-1.28-2.67-2.67-.09-.38-.22-.74-.4-1.09,0-.2-.1-.49-.1-.69v-1.19c-.06-.71-.23-1.41-.49-2.07-.23-.7-.56-1.37-.99-1.98-.2-.32-.43-.62-.69-.89h0c.02-.33-.02-.67-.1-.99l-.3-.59h0c.1,0,.3.1.4.1h.99l-.2-.1c-.32-.32-.58-.69-.79-1.09-.2-.4-.4-.79-.59-1.28,0-.1-.1-.2-.1-.3l-.1-.3c.58-.57.99-1.29,1.19-2.07-.01-.5-.19-.99-.49-1.38-.94-.81-2.29-.93-3.36-.3-.1-.1-.2-.1-.3-.2-.4-.2-.89-.4-1.28-.59-.9-.3-1.87-.3-2.77,0-.47.09-.91.3-1.28.59-.1.12-.24.19-.4.2-1.01-.78-2.44-.69-3.36.2-.39.35-.58.87-.49,1.38.17.85.62,1.62,1.28,2.17l-.2.2c0,.1-.1.2-.1.3-.2.4-.4.89-.59,1.28-.21.4-.47.77-.79,1.09l-.2.1h.99c.14.01.28-.02.4-.1h0l-.3.59c-.08.32-.11.66-.1.99-.2.3-.49.59-.69.89-.39.63-.72,1.29-.99,1.98-.21.68-.38,1.37-.49,2.07v.89q0,.1-.1.2c-.02.33.02.67.1.99.21,2.16.96,4.23,2.17,6.03.21.37.47.7.79.99-.1.1-.1.2-.2.3-.12-.11-.22-.25-.3-.4-.58-.66-1.08-1.39-1.48-2.17-.2-.49-.4-.89-.59-1.38-.47-1.09-.7-2.27-.69-3.46v-.4h0v-.2c-.2.4-.3.89-.49,1.38-.4,1.28-1.48,1.98-2.67,2.67l-.4.2c-.26-.57-.77-.97-1.38-1.09-.21,0-.42.07-.59.2-.36-.1-.75.01-.99.3-.42.01-.78.29-.89.69-.18.08-.32.22-.4.4-.04.98.24,1.95.79,2.77.6,1.08,1.59,1.89,2.77,2.27.17.02.33.06.49.1h0c.2.02.41-.02.59-.1.91-.38,1.88-.61,2.87-.69,1.19-.1,2.17-.2,2.96-.3v.1h0v.1q0,.1.1.1c.08.18.22.32.4.4.19.08.39.11.59.1.2,0,.3-.1.49-.2.08.08.19.11.3.1h.4c.29,0,.57-.11.79-.3.26.08.52.11.79.1.1,0,.3-.1.4-.1.1-.1.2-.1.3-.2.2.02.41-.02.59-.1.2-.07.38-.21.49-.4h.59c.12.18.29.32.49.4.08.08.19.11.3.1h.3c.1.1.2.1.3.2.12.08.26.11.4.1.27.02.54-.02.79-.1.26.12.52.21.79.3h.4c.1,0,.2-.1.3-.1.11.1.25.17.4.2.35.04.69-.11.89-.4.06-.05.09-.12.1-.2v-.2c.69.1,1.68.1,2.77.3.99.08,1.95.31,2.87.69.19.08.39.11.59.1h0c.17.03.35,0,.49-.1,1.18-.38,2.17-1.19,2.77-2.27.33-.44.56-.95.69-1.48v-.1c.79-.3.89-.69.79-.99Zm-29.15,4.15c-.86-.19-1.54-.83-1.78-1.68-.08-.15-.11-.32-.1-.49.01-.56.48-1,1.04-.99.02,0,.03,0,.05,0h0c1.38.1,2.27,3.36.79,3.16Zm15.81-7.61c-.02.34-.08.67-.2.99-.12.67-.28,1.33-.49,1.98-.1.3-.2.59-.3.99-.1.3-.2.59-.3.99-.1.2-.1.3-.2.49-.43.11-.78.4-.99.79-.08.08-.11.19-.1.3h-.89c0-.05-.04-.1-.1-.1-.19-.36-.51-.64-.89-.79h-.1c-.1-.2-.1-.4-.2-.59-.1-.3-.2-.59-.3-.99s-.2-.59-.3-.99c-.2-.69-.3-1.28-.49-1.98-.1-.49-.1-.89-.2-1.38.24-1.64,1.75-2.77,3.39-2.54,1.31.19,2.35,1.22,2.54,2.54.1,0,.1.1.1.3Zm1.38-10.57h0c.45.6.53,1.4.2,2.07v.1c0,.05-.04.1-.1.1-.11.21-.28.38-.49.49.07-.2.03-.42-.1-.59l-.1-.1h0l-.1.1c-.84,1.18-2.21,1.88-3.66,1.88h0c-1.52-.03-2.92-.81-3.75-2.07-.18.22-.29.5-.3.79-.05,0-.1-.04-.1-.1h0c-.3-.21-.52-.53-.59-.89v-.2c-.12-.59.02-1.2.4-1.68-.32.21-.71.28-1.09.2.58-.61.99-1.36,1.19-2.17.41-2.37,2.66-3.97,5.03-3.56,1.05.18,2.01.74,2.67,1.58.1.2.3.3.4.49.31.44.52.95.59,1.48.23.8.64,1.54,1.19,2.17h0c-.42.18-.9.14-1.28-.1Zm3.75,13.54c-.43,1.31-1.06,2.55-1.88,3.66,0,.1-.1.1-.2.2h0l-.1.1c-.1.1-.2.2-.2.3-.1-.2-.1-.4-.2-.59v-.1c.29-.3.56-.64.79-.99.4-.6.76-1.23,1.09-1.88.6-1.31.97-2.71,1.09-4.15-.01-.33.02-.66.1-.99.08.22.11.46.1.69v.79c-.02,1.02-.22,2.02-.59,2.96Zm6.32,2.96c-.3.81-.95,1.43-1.78,1.68-1.48.2-.49-3.06.69-3.16h0c.56-.04,1.05.38,1.08.94,0,.02,0,.03,0,.05.1.2,0,.4,0,.49Z" fill="#ed6d7b" stroke-width="0"/>
        </g>
      </g>
    </g>
  </g>
</svg>