<?xml version="1.0" encoding="UTF-8"?>
<svg id="uuid-f83ce154-a129-4454-92d3-64ad5373f40e" data-name="Calque 2" xmlns="http://www.w3.org/2000/svg" width="59" height="59" xmlns:xlink="http://www.w3.org/1999/xlink" viewBox="0 0 59 59">
  <defs>
    <clipPath id="uuid-fa217fcc-1e3a-43b8-b408-2c0884fa8bd0">
      <rect width="59" height="59" fill="none" stroke-width="0"/>
    </clipPath>
  </defs>
  <g id="uuid-9598e2ed-ed1b-4565-8f62-27f3bad0dd18" data-name="Calque 1">
    <g id="uuid-1d0e61cd-5994-4416-b38f-5bcb3554d895" data-name="personalization__categories__pants">
      <g clip-path="url(#uuid-fa217fcc-1e3a-43b8-b408-2c0884fa8bd0)">
        <path id="uuid-0884d6a6-9717-49cc-b398-5597e970206b" data-name="IcoPantalon" d="m36.53,14.57s-.01-.02-.03-.02c-.01.03-1.5.99-2.45.98-.02-.17-.39-1.02-.52-1.37.45-.14.89-.26,1.17-.38.48-.21.86-.47,1.23-.83l.02-.02s.02-.03,0-.04c0-.02-.02-.03-.04-.03h-.04l-10.37.13s0,0,0,0c-.01,0-.02.01-.03.03,0,.02,0,.04.03.05l1.92.81s-.66,1.4-.68,1.46c-.96-.28-1.47-.63-1.61-.78-.03-.01-.04-.02-.04-.02-.02,0-.03-.02-.03-.04-.51,1.05-.75,2.34-.95,3.49,0,.28,0,.55,0,.79.21,2.6.55,5.18,1.04,7.74.11.49.14.99.09,1.49,0,.31-.02.71-.01,1.2.01,1.48,0,2.31-.05,3.17-.07,1.44-.01,2.88.18,4.3.08.45.14,1.59.2,2.08.06.76.19,1.5.39,2.24.17.86.26,1.74.26,2.62,0,.27.02.54.08.81.05.14.06.28.04.43h.08c.58.07,1.16.07,1.74.03.29-.12.56-.3.77-.53l.04-.04s.02-.01.04-.01c-.02-.15-.07-.45-.09-.66-.03-.28-.01-2.63,0-3.43.01-.47.09-1.79.18-2.51.05-.42.1-.86.14-1.24.05-.95.02-1.91-.09-2.86-.03-.25-.06-.51-.08-.77-.07-1.1.04-2.21.32-3.27.14-.93.22-1.87.24-2.81,0-.84.08-1.68.23-2.51.26-1.5.44-3.01.53-4.53l.54.04c.16,1.01.27,2.04.31,3.06-.03.38.12,1.98.29,3.68.13,1.36.27,2.76.33,3.7.06.85.11,1.38.16,1.82.09.76.13,1.53.11,2.3.01,1.7.15,3.4.42,5.07.06.32.12.63.16.92.11.83.11,1.67,0,2.49-.04.27-.08.61-.13,1.07-.03.32-.05.55-.06.72.02-.03.04-.05.07-.07,0,0,.01,0,.02,0,0,0,0,0,0,0,.01,0,.02,0,.03.01.28.32.63.56,1.03.7.1.02.2.03.31.03.49-.02.98-.1,1.45-.23,0,0,0,0,0,0,.01,0,.03,0,.05,0,0,0,.01,0,.03.03,0-.2-.01-.58,0-.88.03-.5.35-2.99.45-3.55.21-1.23.31-4.72.35-5.94-.02-1.44-.11-2.88-.29-4.31-.07-.72-.14-1.34-.16-1.78.06-1.52.3-3.02.7-4.49.14-.63.28-1.29.43-2,.61-2.96-.39-7.5-.39-7.53Zm-3.21,1.17c-2.14.94-4.61.19-5.47-.01-.16-.04-.37-.12-.51-.23,0-.03.57-1.44.57-1.45,0,0,1.07.37,2.02.51,1.13.14,2.41-.05,2.96-.22.19.34.53,1.35.42,1.39Z" fill="#ed6d7b" stroke-width="0"/>
      </g>
    </g>
  </g>
</svg>