<?xml version="1.0" encoding="UTF-8"?>
<svg id="uuid-5e213d87-6749-4d93-bcdd-9a59b776d77d" data-name="Calque 2" xmlns="http://www.w3.org/2000/svg" width="59" height="59" xmlns:xlink="http://www.w3.org/1999/xlink" viewBox="0 0 59 59">
  <defs>
    <clipPath id="uuid-3e248591-3ce9-4d15-ae91-e121105b9250">
      <rect width="59" height="59" fill="none" stroke-width="0"/>
    </clipPath>
  </defs>
  <g id="uuid-84c0129a-5873-4146-a040-d1e97d79763c" data-name="Calque 1">
    <g id="uuid-4f7f0e4c-b27b-4042-b524-7126c53d8630" data-name="personalization__categories__skin">
      <g clip-path="url(#uuid-3e248591-3ce9-4d15-ae91-e121105b9250)">
        <path id="uuid-4cd8f43f-1922-40fa-8061-d857cfb71dd5" data-name="IcoPeau" d="m35.14,16.9c-.67-1.06-2.38-1.77-5.11-2.12-2.73-.34-4.6.07-5.61,1.25-1.04,1.35-1.34,3.12-.79,4.74v1.01c-.29.43-.43.94-.42,1.46.05.9.76,1.78,2.14,2.65h.65c.17.69.47,1.35.89,1.94,1.06.97,2.3,1.72,3.65,2.23.52.23,1.11.23,1.62,0,1.25-.71,2.2-1.84,2.69-3.19.26-.6.42-1.23.46-1.88.39-.06.67-.36.83-.88.45-1.31.32-2.13-.41-2.45.29-2.1.1-3.68-.59-4.75m-11.8,16.7c-2.71.27-4.23,1.3-4.57,3.08l4.57,7.67h11.68l5.24-7.02c-.7-2.02-2.62-3.36-4.76-3.32l-3.38-1.71-.27-.13c-.31-.09-.58-.2-.88-.33-1.39-.56-2.68-1.34-3.82-2.32-.28-.37-.4-.5-.35-.39v2.55c-.92.99-2.13,1.66-3.45,1.94Z" fill="#ed6d7b" stroke-width="0"/>
      </g>
    </g>
  </g>
</svg>