<?xml version="1.0" encoding="UTF-8"?>
<svg id="uuid-3e5ad2f2-07f4-4c69-878f-b3652fe89a95" data-name="Calque 2" xmlns="http://www.w3.org/2000/svg" width="59" height="59" xmlns:xlink="http://www.w3.org/1999/xlink" viewBox="0 0 59 59">
  <defs>
    <clipPath id="uuid-08129be6-8aa9-4c35-a20e-a97de7cd3663">
      <rect width="59" height="59" fill="none" stroke-width="0"/>
    </clipPath>
  </defs>
  <g id="uuid-99af9d2a-091b-4496-83b8-d9fda6f78c28" data-name="Calque 1">
    <g id="uuid-a82d115a-16a6-4a8d-a07a-1f896b7b27a6" data-name="personalization__categories__tattoo">
      <g clip-path="url(#uuid-08129be6-8aa9-4c35-a20e-a97de7cd3663)">
        <g id="uuid-47ae3a68-6a9e-4e3d-8f9c-5464972d3fa6" data-name="IcoTatouage">
          <path id="uuid-6e54e20a-8d9a-4e0a-8e34-ed1476253390" data-name="Path 6107" d="m36.59,27.33c0-.27-.02-.55-.07-.82l3.85-2.12-.2-.38-.26-.47-3.63,2c-.08-.22-.17-.43-.28-.64l3.51-1.93.28-1.25h0c.07-.41-.2-.8-.6-.87-.38-.07-.75.16-.85.53-.39-.13-.82.07-.95.47,0,.02-.01.04-.02.07-.39-.13-.82.08-.95.47-.01.04-.02.08-.03.12h0l-.47,2.25c-.79-1.44-2.3-2.32-3.94-2.31-1.85.01-3.45,1.27-3.91,3.06-.45-1.79-2.06-3.05-3.91-3.06-2.59.05-4.66,2.19-4.61,4.78,0,.03,0,.07,0,.1v.04c.09,2.17.93,4.24,2.36,5.87l-2.57,1.4-.58-1.05-2.21,3.13,3.83-.19-.58-1.05,2.75-1.49c1.59,1.69,3.46,3.1,5.52,4.17h0c8.52-4.59,8.53-10.23,8.52-10.78v-.04" fill="#ed6d7b" stroke-width="0"/>
          <path id="uuid-11b5d7d5-985f-4383-9614-af75faf36d44" data-name="Path 6108" d="m42.35,25.76c-.09-.16-.23-.28-.4-.34l-1.21-.43-3.64,2,2.36.89h0c.38.16.82-.01.98-.39.02-.04.03-.08.04-.12.39.13.82-.07.95-.47,0-.02.01-.04.02-.07.39.13.82-.08.95-.47.07-.2.05-.41-.05-.6" fill="#ed6d7b" stroke-width="0"/>
        </g>
      </g>
    </g>
  </g>
</svg>