<?xml version="1.0" encoding="UTF-8"?>
<svg id="uuid-a4547372-b8c1-4b96-a5a7-f80a3b5a3fc3" data-name="Calque 2" xmlns="http://www.w3.org/2000/svg" width="59" height="59" xmlns:xlink="http://www.w3.org/1999/xlink" viewBox="0 0 59 59">
  <defs>
    <clipPath id="uuid-3aa82cfb-8049-427c-9d04-b5766588e3d8">
      <rect width="59" height="59" fill="none" stroke-width="0"/>
    </clipPath>
    <linearGradient id="uuid-c6821762-276e-49af-9095-0e4aa7ea868c" x1="22.56" y1="20.52" x2="22.56" y2="20.52" gradientUnits="userSpaceOnUse">
      <stop offset="0" stop-color="#c73a5f"/>
      <stop offset="1" stop-color="#ed6d7b"/>
    </linearGradient>
  </defs>
  <g id="uuid-eb240dc3-1eec-49e4-bbdc-5565df93b1ee" data-name="Calque 1">
    <g id="uuid-1d1e7f16-a033-4984-acfa-37f1a1a35704" data-name="personalization__categories__underwear">
      <g clip-path="url(#uuid-3aa82cfb-8049-427c-9d04-b5766588e3d8)">
        <g id="uuid-2b3cae64-925c-4305-bf5a-d8f45631af58" data-name="IcoSousvetements">
          <path id="uuid-acaa6544-2ad8-457e-af8c-1b621436429b" data-name="Path 6176" d="m38.95,33.25s-2.62,2.22-8.94,2.36c-6.31-.14-8.94-2.36-8.94-2.36l-.76,2.22c3.4-.42,5.55,2.7,6.86,5.89s2.84,2.77,2.84,2.77c0,0,1.52.42,2.84-2.77s3.47-6.31,6.86-5.89l-.76-2.22Z" fill="#ed6d7b" stroke-width="0"/>
          <polygon points="22.56 20.52 22.56 20.52 22.56 20.52 22.56 20.52" fill="url(#uuid-c6821762-276e-49af-9095-0e4aa7ea868c)" stroke-width="0"/>
          <path d="m23.93,25.3s-.04-.21.17-.21c.2,0,.23.21.23.21h0c.23,1.08.61,2.12,1.13,3.09,2.05-.2,3.83-1.83,3.83-1.83-1.01-5.11-6.71-6.03-6.73-6.04-.61.91-1.01,1.94-1.17,3.03-.18,1.58-.02,3.71,2.36,4.63.42.16.85.23,1.27.23-.53-.97-.91-2.02-1.1-3.11Z" fill="#ed6d7b" stroke-width="0"/>
          <path d="m38.63,23.55c-.16-1.08-.56-2.12-1.17-3.03h0s-5.72.91-6.73,6.03c0,0,1.81,1.66,3.89,1.84.53-.97.91-2.01,1.14-3.1,0,0,.03-.18.22-.17.17,0,.18.17.18.17-.2,1.09-.57,2.14-1.1,3.11.4-.01.8-.07,1.2-.23,2.39-.92,2.55-3.04,2.36-4.63Z" fill="#ed6d7b" stroke-width="0"/>
          <path d="m23.81,20.24l.04-4.71h-1.28v4.38c.43.09.85.2,1.24.33Z" fill="#ed6d7b" stroke-width="0"/>
          <path d="m36.48,28.73c-.51.2-1.02.28-1.52.28-2.41,0-4.53-1.92-4.63-2.02l-.24-.22h-.15l-.24.22c-.11.1-2.22,2.02-4.63,2.02-.5,0-1.01-.08-1.52-.28-.27-.1-.51-.22-.74-.35l.34,1.33h13.85l.37-1.43c-.27.17-.56.32-.89.44Z" fill="#ed6d7b" stroke-width="0"/>
          <path d="m37.44,19.95v-4.42h-1.28v4.79c.4-.14.83-.26,1.28-.36Z" fill="#ed6d7b" stroke-width="0"/>
        </g>
      </g>
    </g>
  </g>
</svg>