<?xml version="1.0" encoding="UTF-8"?>
<svg id="uuid-5e08582b-4e2e-419e-bacf-68d92631750f" data-name="Calque 2" xmlns="http://www.w3.org/2000/svg" width="59" height="59" xmlns:xlink="http://www.w3.org/1999/xlink" viewBox="0 0 59 59">
  <defs>
    <clipPath id="uuid-81730e7f-f0ea-41c8-8d33-62e085b8ce82">
      <rect width="59" height="59" fill="none" stroke-width="0"/>
    </clipPath>
  </defs>
  <g id="uuid-bfac86f4-e583-4fdd-ab03-d71e2ffe3496" data-name="Calque 1">
    <g id="uuid-89389eb5-929c-4901-9f08-a81dabdcd8cb" data-name="personalization__categories__wig">
      <g clip-path="url(#uuid-81730e7f-f0ea-41c8-8d33-62e085b8ce82)">
        <g id="uuid-9aed4b7a-b54e-4fa1-b0f4-5fc6427afeb1" data-name="IcoPerruque">
          <path id="uuid-3c2e18d7-b914-44d8-ba86-e699a351fe81" data-name="IcoPeau" d="m34.88,16.75c-.68-1.06-2.38-1.77-5.12-2.12-2.74-.34-4.61.07-5.62,1.26-1.05,1.35-1.34,3.13-.8,4.75v1.02c-.29.43-.44.94-.43,1.46.05.9.76,1.79,2.15,2.66h.65c.17.7.47,1.35.89,1.94,1.07.97,2.31,1.73,3.66,2.24.52.23,1.11.23,1.63,0,1.25-.71,2.21-1.84,2.7-3.2.26-.6.42-1.23.46-1.88.39-.06.67-.36.83-.89.46-1.32.32-2.14-.41-2.46.37-1.61.16-3.3-.59-4.77m-11.84,16.74c-2.71.27-4.24,1.3-4.59,3.09l4.59,7.69h11.7l5.25-7.04c-.7-2.02-2.63-3.37-4.77-3.33l-3.62-1.83v-.02c-.31-.09-.62-.2-.92-.33-1.4-.56-2.69-1.34-3.83-2.33-.28-.37-.4-.5-.35-.39v2.55c-.92.99-2.13,1.67-3.46,1.94h0Z" fill="#ed6d7b" opacity=".3" stroke-width="0"/>
          <path id="uuid-40cdaa4f-d353-4608-956c-15c02ad77e61" data-name="IcoPerruque" d="m36.48,17.21l-.76-2.33c-.46-.95-2.28-1.72-5.48-2.33l-.48-.07c-.09.02-.17.05-.24.07-.75.27-1.55.41-2.35.41-.98-.23-1.53-.08-1.64.44-.33.22-.62.48-.89.77-.72.23-1.15.96-1,1.7-.35.16-.63.44-.79.78-.72.94-1.23,2.02-1.49,3.18-.07.95.23,1.39.92,1.33-1.12.54-1.43,1-.92,1.4-.42.68-.37,1.56.13,2.19-.52.8-.54,1.82-.06,2.63.28.72.82.9,1.61.54-.89-.19-.98-.6-.29-1.23-.28.56.02.85.9.86-.25.71.11,1,1.07.88.38.3.12.57-.77.8,1.26.27,1.86-.03,1.81-.92l-.22-2.84c-.18.22-.51.25-.72.07-.03-.02-.05-.04-.07-.07l-1.41-1.31c-.54-.6-.56-1.51-.04-2.13.22-.41.51-.57.87-.49.37.07.74.53,1.13,1.36-.02-1.52.34-3.03,1.04-4.38.75-.29,1.43-.74,2.01-1.31.11.17.33.23.66.17l.22-.34c.32.4.86.54,1.33.34.16-.2.41-.32.66-.32,1.23-.09,1.71.5,1.44,1.76-.33,1.46.38,2.1,2.12,1.92l.46,1.12-.76,4.21c-.18.42-.39.9-.65,1.44-.24.52-.56,1-.96,1.42.52,2,1.46,2.38,2.82,1.12-.75.63-.84,1.75-.21,2.5.13.15.28.28.45.38.39.08.79.03,1.14-.13.34-.2.43-.6.26-1.2-.22.91-.6,1.08-1.14.52-.06-.27-.03-.55.07-.8,1.08-.39,1.31-.97.68-1.74,2.33-.66,2.82-1.72,1.49-3.19-1.48-.87-1.46-1.58.06-2.13.64-.58.7-1.57.12-2.21-.06-.07-.12-.13-.19-.18-.84-.46-1.24-.96-1.2-1.51,1-1.66.74-2.7-.76-3.14m1.11,9.62c.4.24.68.65.74,1.12.01.18-.03.36-.11.52-.38.51-1.1.61-1.61.23-.07-.06-.14-.12-.2-.19,1.02.15,1.42-.38,1.2-1.59,0-.03,0-.07-.02-.1h0Z" fill="#ed6d7b" stroke-width="0"/>
        </g>
      </g>
    </g>
  </g>
</svg>