<?xml version="1.0" encoding="UTF-8"?>
<svg id="uuid-a8747541-ef06-4e90-b9bb-881dd74ca88c" data-name="Calque 2" xmlns="http://www.w3.org/2000/svg" width="48" height="48" xmlns:xlink="http://www.w3.org/1999/xlink" viewBox="0 0 48 48">
  <defs>
    <clipPath id="uuid-23bc09b8-13e4-4fd1-aaf5-0cefe2ba6f1c">
      <rect width="48" height="48" fill="none" stroke-width="0"/>
    </clipPath>
  </defs>
  <g id="uuid-f4f46778-4415-4151-9af5-d3e28ba0211d" data-name="Calque 1">
    <g id="uuid-fd354a34-1265-43b0-8331-2ead7513d0a6" data-name="personalization__pet__off-lively">
      <g clip-path="url(#uuid-23bc09b8-13e4-4fd1-aaf5-0cefe2ba6f1c)">
        <path id="uuid-97ec7413-a651-4cbd-8c15-e7226e2f5117" data-name="Taki" d="m37.32,35.38c-.08-.08-.16-.15-.25-.2-.37-.21-.74-.41-1.1-.62-.2-.11-.39-.23-.61-.36.16-.03.28-.09.39-.17.27-.2.31-.45.11-.69-.07-.09-.16-.17-.25-.25-.1-.1-.26-.14-.32-.29-.07-.19-.21-.32-.39-.41-.06-.03-.14-.05-.19-.1-.1-.1-.22-.15-.36-.15-.06,0-.12-.01-.14-.1-.06-.32-.23-.59-.42-.85-.28-.36-.58-.72-.75-1.15-.18-.46-.45-.88-.69-1.32-.45-.83-1.02-1.58-1.67-2.27-.43-.46-.91-.86-1.42-1.21-.66-.46-1.37-.83-2.11-1.16-.45-.2-.92-.37-1.39-.52-.3-.09-.61-.15-.89-.3-.14-.08-.3-.12-.45-.17-.38-.12-.77-.19-1.16-.27-.08-.02-.16-.04-.22-.12-.11-.14-.22-.27-.33-.42-.23-.32-.47-.65-.7-.97-.3-.43-.61-.85-.9-1.28-.39-.6-.73-1.22-1.03-1.87-.2-.44-.41-.87-.59-1.31-.31-.74-.59-1.5-.91-2.24-.21-.49-.27-.97-.12-1.5.15-.52.22-1.07.3-1.61.05-.32.05-.65.14-.97.02-.06.03-.13.02-.19-.03-.21.08-.32.24-.41.2-.11.39-.23.55-.39.07-.07.13-.08.21-.04.37.13.74.22,1.13.22.77.01,1.53.01,2.3,0,.31,0,.62-.06.92-.18.28-.12.35-.36.17-.6-.11-.15-.25-.28-.38-.41-.14-.15-.28-.3-.44-.43-.2-.17-.36-.37-.44-.63-.09-.31-.19-.62-.3-.92-.32-.82-.79-1.53-1.49-2.07-.29-.22-.58-.43-.95-.52-.04,0-.07-.03-.09-.06-.09-.12-.22-.2-.34-.29-.37-.27-.81-.4-1.24-.55-.38-.13-.79-.14-1.19-.2-.37-.05-.69-.18-.84-.57-.11-.3-.16-.59-.03-.89.09-.21.18-.41.27-.62.09-.21.18-.41.16-.65-.02-.17-.14-.29-.31-.3-.3-.01-.5.15-.68.37-.5.59-.47,1.46-.03,2.01.18.22.36.44.6.62-.08.01-.16.02-.23.03-.56.1-1.03.35-1.39.78-.37.43-.66.92-.86,1.46-.34.89-.51,1.81-.55,2.75-.03.63,0,1.27,0,1.9,0,.12.01.25.03.37.05.43.1.85.16,1.28.07.53.14,1.06.27,1.58.13.53.23,1.06.36,1.59.26,1.08.57,2.15.93,3.2.26.74.58,1.46.88,2.18.2.49.42.97.65,1.44.09.2.12.39.03.59-.04.09-.09.18-.14.27-.13.23-.28.46-.39.71-.22.51-.41,1.04-.77,1.48,0,0-.01.01-.01.02-.15.22-.29.45-.43.68,0,0,0,0,0,0-.18.2-.31.43-.42.67-.25.54-.48,1.08-.7,1.63-.34.87-.7,1.73-.81,2.67-.04.33-.05.67,0,1,.06.41.2.8.34,1.19.16.44.33.87.57,1.26.11.17.14.38.25.55.17.26.4.46.59.71.07.1.2.16.21.3.02.2.04.41.05.61.03.6.26,1.1.74,1.49.06.05.11.1.14.18.05.12.12.22.23.29.09.06.16.15.21.25.12.24.25.47.38.7.35.67.81,1.25,1.38,1.74.08.07.18.13.25.23.13.19.19.4.2.62,0,.11-.01.22.01.33.09.38.32.65.65.85.36.21.73.42.99.75.25.31.53.62.54,1.06,0,.14,0,.26-.09.37-.09.12-.16.25-.21.39-.06.18-.32.35-.51.33-.05,0-.11-.02-.15.02-.06.06-.12.06-.19.05-.09,0-.19,0-.27.04-.18.1-.37.15-.57.17-.27.03-.54.09-.81.11-.24,0-.48.06-.72.06-.19,0-.38.09-.57-.01-.04-.02-.09,0-.13.02-.08.05-.16.09-.24.14-.07.05-.15.11-.15.19,0,.09.11.07.17.12-.02.01-.04.02-.05.03-.06.05-.16.06-.15.16.02.1.12.12.2.15.03.01.07,0,.11.01.06,0,.13,0,.19.01.09.03.15,0,.21-.06.06-.06.13-.09.21-.1.31-.06.63-.06.95-.05.16,0,.32.02.48.06.13.03.26.06.37.19-.22-.02-.37.06-.48.21-.04.06-.09.12-.05.2.04.07.11.05.18.04.13-.02.25-.05.38-.04.04,0,.08,0,.11-.05.03-.05.08-.07.13-.1.28-.13.57-.24.86-.35.32-.12.64-.27.97-.36.2-.06.39-.12.56-.24.05-.03.09-.02.14,0,.1.06.21.08.33.07.28-.03.56-.07.83-.11.22-.03.43-.12.66-.08.16.02.32-.04.48-.09.08-.02.1-.09.04-.15-.09-.11-.22-.13-.34-.18-.07-.03-.12.03-.17.06-.05.03-.11.04-.17.05-.2.03-.4.06-.59.09-.07,0-.13.03-.19-.03-.33-.26-.66-.53-.97-.81-.09-.08-.14-.17-.18-.3-.09-.32-.23-.62-.3-.95-.06-.3-.19-.59-.26-.9-.02-.11-.09-.23,0-.34.13-.14.18-.31.22-.49.04-.19.06-.39.04-.6-.02-.16.01-.33-.02-.49-.02-.12.05-.15.11-.21.06-.06.11,0,.16.02.04.02.07.05.11.07.27.18.58.26.89.31.28.05.56.05.84.07.47.04.93.1,1.4.03.02,0,.04,0,.06.01.09.04.19.07.29.08.05,0,.06.03.07.08,0,.12,0,.23.03.35.03.21.04.43.17.62.16.24.45.37.53.67.12.04.1.15.13.25.1.33.12.67.09,1.01-.01.12-.04.23-.1.33-.28.47-.55.94-.86,1.39-.05.07-.11.14-.19.15-.1.02-.17.07-.24.12-.52.4-1.13.6-1.75.78-.02,0-.05,0-.07,0-.16,0-.31-.02-.44.14-.06.08-.12.17-.16.26-.02.04-.01.08.04.08.19,0,.39.03.57-.02.41-.1.82-.23,1.25-.2.33.02.64.09.95.21.22.08.24.14.21.37-.01.1,0,.19.02.29.01.05.05.07.09.04.18-.12.31-.29.38-.48.05-.14.12-.18.22-.22.41-.14.83-.19,1.25-.22.31-.02.61,0,.91.06.2.03.42,0,.59.17,0,0,.04.01.04,0,.08-.08.16-.01.23.01.08.02.17.05.26.07.07.01.12,0,.09-.1-.03-.09-.07-.18-.14-.24-.14-.11-.27-.26-.48-.17-.05.02-.09,0-.14-.02-.23-.09-.46-.16-.71-.2-.33-.06-.63-.16-.77-.5-.01-.03-.04-.05-.07-.06-.07,0-.08-.05-.09-.1-.07-.32-.16-.64-.23-.96-.05-.23-.1-.46-.05-.7.08-.44.15-.89.32-1.31.03-.06.05-.11.11-.14.09-.04.17-.11.16-.21-.02-.24.09-.43.2-.62.19-.3.31-.62.26-.98,0-.03,0-.07.04-.09.11-.03.21-.09.31-.14.41-.19.74-.48.97-.88.02-.04.05-.08.1-.1.12-.06.24-.13.36-.18.53-.21,1-.52,1.45-.87.22-.17.45-.34.74-.39.2-.03.4-.07.61-.1.57-.09,1.11-.25,1.64-.49.29-.13.55-.3.84-.41.58-.21,1.14-.47,1.64-.84.26-.19.51-.4.72-.66.15-.18.14-.37-.02-.54Z" fill="#d4d4d4" stroke-width="0"/>
        <g id="uuid-e479e71e-1084-4fbb-9ff9-3f419c3ec569" data-name="Unvisible">
          <path d="m22.04,19.37c.61-.14,1.24-.21,1.87-.21,5.37,0,8.91,5.39,9.85,7-.52.9-1.11,1.75-1.78,2.54-.36.42-.3,1.05.12,1.41.19.16.42.23.64.23.28,0,.57-.12.77-.36.87-1.04,1.64-2.17,2.27-3.36.15-.29.16-.63.01-.92-.17-.35-4.36-8.55-11.89-8.55-.75-.02-1.57.09-2.33.27-.54.13-.87.66-.75,1.2.13.54.66.87,1.2.75Z" fill="#ef881b" stroke-width="0"/>
          <path d="m35.61,36.44L13.63,14.46c-.39-.39-1.02-.39-1.41,0s-.39,1.02,0,1.41l4.29,4.29c-1.81,1.56-3.33,3.4-4.47,5.52-.15.29-.16.63-.01.92.17.35,4.36,8.55,11.9,8.55,2.08-.03,4.07-.64,5.81-1.76l4.46,4.46c.2.2.45.29.71.29s.51-.1.71-.29c.39-.39.39-1.02,0-1.41Zm-13.67-10.84l2.52,2.52c-.18.06-.36.1-.55.11-.54.02-1.04-.17-1.43-.54-.39-.36-.62-.86-.63-1.39,0-.24.03-.48.11-.7Zm1.97,7.55c-5.37,0-8.91-5.38-9.85-6.99,1.01-1.75,2.31-3.28,3.86-4.58l2.53,2.53c-.42.67-.64,1.45-.61,2.26.04,1.07.49,2.06,1.27,2.78.75.7,1.71,1.07,2.72,1.07.05,0,.1,0,.14,0,.71-.03,1.38-.25,1.97-.62l2.33,2.33c-1.33.77-2.82,1.19-4.36,1.22Z" fill="#ef881b" stroke-width="0"/>
        </g>
      </g>
    </g>
  </g>
</svg>